<svg width="44" height="44" viewBox="0 0 44 44" fill="none" xmlns="http://www.w3.org/2000/svg">
<path d="M22 0C9.84964 0 0 9.84964 0 22C0 34.1503 9.84964 43.9999 22 43.9999C34.1503 43.9999 44 34.1503 44 22C43.9999 9.84964 34.1501 0 22 0Z" fill="url(#paint0_linear_14_12)"/>
<path fill-rule="evenodd" clip-rule="evenodd" d="M11.4644 32.408H16.2947V16.8026H11.4644V32.408ZM11 11.8795C11 13.4697 12.2788 14.759 13.8564 14.759C15.4338 14.759 16.7126 13.4698 16.7126 11.8795C16.7126 10.2892 15.4338 9 13.8564 9C12.2791 9 11 10.2892 11 11.8795ZM29.5894 32.408H34.3962V22.5269C34.3962 18.3471 32.0276 16.3267 28.7185 16.3267C25.4094 16.3267 24.0159 18.9044 24.0159 18.9044V16.8026H19.3831V32.408H24.0159V24.2165C24.0159 22.0219 25.0259 20.7157 26.9595 20.7157C28.7358 20.7157 29.5894 21.9698 29.5894 24.2165V32.408Z" fill="white"/>
<defs>
<linearGradient id="paint0_linear_14_12" x1="6.44363" y1="6.44363" x2="37.5563" y2="37.5563" gradientUnits="userSpaceOnUse">
<stop stop-color="#2489BE"/>
<stop offset="1" stop-color="#0575B3"/>
</linearGradient>
</defs>
</svg>
