<svg width="40" height="40" viewBox="0 0 40 40" fill="none" xmlns="http://www.w3.org/2000/svg">
<g clip-path="url(#clip0_13_5)">
<path d="M20 40C31.0457 40 40 31.0457 40 20C40 8.95434 31.0457 3.05176e-05 20 3.05176e-05C8.9543 3.05176e-05 0 8.95434 0 20C0 31.0457 8.9543 40 20 40Z" fill="#2DAAE1"/>
<path d="M32.8237 12.0443C31.8803 12.463 30.8671 12.7459 29.8017 12.8731C30.889 12.2221 31.7219 11.1904 32.1152 9.96244C31.0824 10.5759 29.9521 11.0077 28.7733 11.2392C27.8141 10.2168 26.4462 9.5784 24.9329 9.5784C22.0281 9.5784 19.6723 11.9332 19.6723 14.8397C19.6723 15.2515 19.7187 15.6533 19.8078 16.039C15.4351 15.8193 11.5583 13.7247 8.96343 10.5419C8.51033 11.3192 8.25097 12.223 8.25097 13.1873C8.25097 15.0124 9.17994 16.6227 10.5915 17.566C9.75587 17.5401 8.9386 17.3146 8.20798 16.9082V16.9747C8.20798 19.5241 10.0213 21.6499 12.4284 22.1334C11.9862 22.2545 11.5221 22.3178 11.0421 22.3178C10.7027 22.3178 10.3733 22.2857 10.0516 22.2252C10.7212 24.3148 12.6643 25.8358 14.9659 25.8788C13.1653 27.2903 10.8963 28.1317 8.43202 28.1317C8.00758 28.1317 7.58809 28.1064 7.17627 28.0568C9.50503 29.55 12.2701 30.4217 15.2414 30.4217C24.9185 30.4217 30.211 22.4046 30.211 15.4521C30.211 15.2238 30.206 14.9973 30.195 14.7715C31.2262 14.0257 32.1163 13.1022 32.8237 12.0443V12.0443Z" fill="white"/>
</g>
<defs>
<clipPath id="clip0_13_5">
<rect width="40" height="40" fill="white"/>
</clipPath>
</defs>
</svg>
