<svg width="208" height="78" viewBox="0 0 208 78" fill="none" xmlns="http://www.w3.org/2000/svg">
<path fill-rule="evenodd" clip-rule="evenodd" d="M48.5261 0H7.16512C3.22443 0 0.000244141 3.22414 0.000244141 7.16482V47.5029L0.000433518 47.5028V16.081H28.2769C35.2362 16.081 40.7165 17.995 44.1975 21.4742C46.981 24.2596 48.3734 27.6522 48.3734 31.8287V32.0019C48.3734 38.8753 44.7194 42.7037 40.3697 45.1397C47.4163 47.8366 51.7666 51.9261 51.7666 60.1042V60.278C51.7666 70.6914 43.8553 76.2354 31.5876 76.9112L22.5806 76.9824H20.2962H11.2905H9.00623L7.16512 76.9825H48.5261C52.4667 76.9825 55.691 73.7582 55.691 69.8175V7.16482C55.691 3.22414 52.4667 0 48.5261 0Z" fill="#ED3237"/>
<path d="M73.4337 19.892V28.2912H74.9975C77.5888 28.2912 79.3352 27.9646 80.2367 27.3108C81.1364 26.6576 81.5879 25.7064 81.5879 24.4591C81.5879 23.0482 81.059 21.9341 80.001 21.1173C78.9441 20.3004 77.1864 19.892 74.7294 19.892H73.4337ZM73.4337 7.41568V14.322H74.7981C76.3189 14.322 77.4479 14.0031 78.1858 13.3642C78.9239 12.7261 79.2929 11.8566 79.2929 10.7579C79.2929 9.73293 78.9423 8.91962 78.2419 8.31844C77.541 7.71667 76.4752 7.41568 75.044 7.41568H73.4337ZM67.1954 34.2391V1.4676H72.3483C75.3372 1.4676 77.5231 1.66058 78.9065 2.04681C80.8686 2.56686 82.4311 3.53219 83.5905 4.94316C84.7507 6.35397 85.3305 8.01745 85.3305 9.9336C85.3305 11.1808 85.0664 12.3141 84.54 13.331C84.0127 14.3483 83.1541 15.3023 81.966 16.1939C83.9566 17.1294 85.4121 18.2991 86.3329 19.7029C87.2536 21.1059 87.7138 22.7658 87.7138 24.6818C87.7138 26.5237 87.2381 28.2015 86.2864 29.717C85.3351 31.2317 84.1081 32.3644 82.6071 33.1144C81.1055 33.8642 79.0307 34.2391 76.3846 34.2391H67.1954Z" fill="#201E1E"/>
<path d="M90.1996 10.0001H95.4127V13.0523C95.9775 11.8494 96.7281 10.9358 97.663 10.3118C98.5986 9.68843 99.6238 9.37672 100.737 9.37672C101.525 9.37672 102.349 9.58458 103.21 10.0001L101.317 15.2358C100.604 14.8794 100.017 14.7008 99.5569 14.7008C98.6207 14.7008 97.8302 15.28 97.1841 16.439C96.5381 17.5973 96.2151 19.8696 96.2151 23.2556L96.2372 24.4367V34.2394H90.1996V10.0001Z" fill="#201E1E"/>
<path d="M104.181 10.0003H110.262V34.2397H104.181V10.0003Z" fill="#201E1E"/>
<path d="M129.256 13.3866L125.49 17.1518C123.961 15.6372 122.573 14.8794 121.325 14.8794C120.641 14.8794 120.107 15.0239 119.72 15.3141C119.335 15.6031 119.142 15.9636 119.142 16.3942C119.142 16.7208 119.264 17.0217 119.509 17.2963C119.754 17.5717 120.359 17.9466 121.325 18.4218L123.552 19.5352C125.899 20.6943 127.51 21.8745 128.387 23.0778C129.263 24.2808 129.702 25.6916 129.702 27.3105C129.702 29.4647 128.91 31.2613 127.329 32.702C125.747 34.1427 123.626 34.8634 120.968 34.8634C117.433 34.8634 114.612 33.4818 112.502 30.719L116.245 26.6424C116.958 27.4746 117.794 28.1463 118.751 28.6587C119.71 29.1709 120.56 29.4271 121.303 29.4271C122.105 29.4271 122.751 29.2342 123.241 28.8478C123.731 28.4622 123.976 28.0161 123.976 27.5111C123.976 26.5755 123.092 25.6619 121.325 24.7712L119.275 23.7465C115.355 21.7707 113.394 19.2983 113.394 16.3273C113.394 14.4112 114.132 12.7741 115.611 11.4153C117.088 10.0557 118.978 9.37673 121.281 9.37673C122.854 9.37673 124.336 9.72188 125.725 10.4128C127.113 11.1029 128.291 12.0946 129.256 13.3866Z" fill="#201E1E"/>
<path d="M133.168 0.643152H139.25V19.9937L148.206 9.99995H155.844L145.402 21.6171L157.092 34.2392H149.542L139.25 23.068V34.2392H133.168V0.643152Z" fill="#201E1E"/>
<path d="M169.706 15.1021C167.817 15.1021 166.243 15.7594 164.986 17.0736C163.728 18.3878 163.1 20.0703 163.1 22.1195C163.1 24.229 163.721 25.937 164.964 27.2436C166.205 28.5512 167.779 29.2043 169.683 29.2043C171.587 29.2043 173.172 28.5441 174.437 27.2215C175.701 25.8995 176.334 24.199 176.334 22.1195C176.334 20.0405 175.713 18.3514 174.47 17.0515C173.228 15.7517 171.639 15.1021 169.706 15.1021ZM169.605 9.37673C171.893 9.37673 174.043 9.94814 176.055 11.0921C178.067 12.2355 179.638 13.7875 180.767 15.7482C181.895 17.7088 182.46 19.8248 182.46 22.0973C182.46 24.3848 181.892 26.5235 180.756 28.5136C179.619 30.5041 178.072 32.0596 176.111 33.1808C174.15 34.3021 171.989 34.8634 169.628 34.8634C166.152 34.8634 163.185 33.6268 160.727 31.1539C158.269 28.6806 157.041 25.6767 157.041 22.1423C157.041 18.3549 158.429 15.1987 161.207 12.6738C163.642 10.4754 166.442 9.37673 169.605 9.37673Z" fill="#201E1E"/>
<path d="M186.06 10.0001H192.142V12.4844C193.521 11.3214 194.77 10.5131 195.89 10.0586C197.01 9.60373 198.156 9.37672 199.327 9.37672C201.73 9.37672 203.769 10.2157 205.445 11.894C206.854 13.3199 207.558 15.4288 207.558 18.2211V34.2394H201.544V23.6249C201.544 20.7319 201.413 18.8112 201.154 17.8618C200.895 16.9119 200.443 16.1889 199.798 15.6921C199.154 15.1948 198.358 14.9462 197.409 14.9462C196.179 14.9462 195.124 15.3576 194.242 16.1811C193.361 17.0044 192.749 18.1437 192.408 19.5969C192.23 20.3539 192.142 21.993 192.142 24.5149V34.2394H186.06V10.0001Z" fill="#201E1E"/>
<path d="M111.271 3.99253C111.271 6.1975 109.483 7.98523 107.278 7.98523C105.073 7.98523 103.285 6.1975 103.285 3.99253C103.285 1.78757 105.073 1.48917e-06 107.278 1.48917e-06C109.483 1.48917e-06 111.271 1.78757 111.271 3.99253Z" fill="#ED3237"/>
<path d="M159.99 39.9069H171.003V42.3376H167.003V54.9208H163.991V42.3376H159.99V39.9069Z" fill="#201E1E"/>
<path d="M196.546 39.9069H207.558V42.3376H203.558V54.9208H200.546V42.3376H196.546V39.9069Z" fill="#201E1E"/>
<path d="M175.561 39.9069H178.981L183.757 51.071L188.532 39.9069H191.93V54.9208H188.919V45.1557L184.897 54.9208H182.616L178.572 45.1557V54.9208H175.561V39.9069Z" fill="#201E1E"/>
<path d="M67.1954 61.3791L207.558 61.3794V62.1183L67.1954 62.1179V61.3791Z" fill="#201E1E"/>
<path d="M123.563 75.2784L122.516 73.6022C122.299 73.7405 122.142 73.8809 122.048 74.0233C121.954 74.1636 121.907 74.3256 121.907 74.5075C121.907 74.7961 121.995 75.0392 122.17 75.235C122.344 75.4305 122.558 75.5274 122.81 75.5274C122.916 75.5274 123.034 75.5077 123.157 75.4661C123.283 75.4265 123.418 75.3633 123.563 75.2784ZM122.844 71.5425L123.022 71.3863C123.165 71.2637 123.275 71.1254 123.353 70.9712C123.431 70.817 123.471 70.6649 123.471 70.5145C123.471 70.3447 123.428 70.2062 123.341 70.0996C123.255 69.9946 123.145 69.9414 123.01 69.9414C122.838 69.9414 122.699 69.9988 122.595 70.1152C122.489 70.23 122.436 70.3781 122.436 70.5601C122.436 70.6569 122.45 70.7558 122.479 70.8604C122.509 70.9652 122.548 71.0582 122.597 71.1392L122.844 71.5425ZM124.256 76.3931C124.035 76.6107 123.796 76.7726 123.539 76.8814C123.283 76.9902 123.004 77.0455 122.707 77.0455C122.054 77.0455 121.509 76.8044 121.072 76.3241C120.633 75.8437 120.414 75.2526 120.414 74.5549C120.414 74.126 120.526 73.7227 120.747 73.3432C120.971 72.9657 121.298 72.6256 121.731 72.3232C121.49 71.918 121.323 71.582 121.227 71.3151C121.131 71.0464 121.084 70.7914 121.084 70.5481C121.084 69.9848 121.264 69.5341 121.623 69.2C121.984 68.8641 122.466 68.6959 123.069 68.6959C123.604 68.6959 124.043 68.8581 124.382 69.1844C124.723 69.5103 124.893 69.9295 124.893 70.4435C124.893 70.8408 124.778 71.2281 124.548 71.6058C124.319 71.9852 123.986 72.3291 123.551 72.6416L124.613 74.3394L125.444 73.44L126.292 74.634L125.34 75.5037L126.275 76.9862H124.623L124.256 76.3931Z" fill="#ED3237"/>
<path d="M71.3631 75.5611C71.3631 75.7634 71.3082 75.9547 71.1981 76.1346C71.088 76.3144 70.9387 76.472 70.7498 76.607C70.5612 76.7419 70.3411 76.8487 70.0895 76.9274C69.8378 77.0061 69.5704 77.0455 69.2872 77.0455C68.9937 77.0455 68.721 77.0061 68.4694 76.9274C68.2179 76.8487 67.9977 76.7419 67.8089 76.607C67.6202 76.472 67.4708 76.3144 67.3607 76.1346C67.2506 75.9547 67.1954 75.7634 67.1954 75.5611V73.1993L68.7526 74.3127V76.2357C68.7526 76.3258 68.7971 76.4045 68.8862 76.472C68.9753 76.5395 69.0881 76.5732 69.2243 76.5732C69.3501 76.5732 69.4576 76.5395 69.5467 76.472C69.636 76.4045 69.6805 76.3258 69.6805 76.2357V74.0315L67.1954 72.2545V70.1853C67.1954 69.9828 67.2506 69.7917 67.3607 69.6118C67.4708 69.4318 67.6202 69.2743 67.8089 69.1393C67.9977 69.0045 68.2179 68.8975 68.4694 68.8188C68.721 68.7402 68.9937 68.7007 69.2872 68.7007C69.5704 68.7007 69.8378 68.7402 70.0895 68.8188C70.3411 68.8975 70.5612 69.0045 70.7498 69.1393C70.9387 69.2743 71.088 69.4318 71.1981 69.6118C71.3082 69.7917 71.3631 69.9828 71.3631 70.1853V72.6594L69.7277 71.4899V69.6679C69.7277 69.578 69.6831 69.4992 69.594 69.4318C69.5048 69.3643 69.3973 69.3304 69.2716 69.3304C69.1353 69.3304 69.0226 69.3643 68.9334 69.4318C68.8443 69.4992 68.7997 69.578 68.7997 69.6679V71.771L71.3631 73.6042V75.5611ZM78.6947 74.1328L77.3266 74.144L76.902 76.7981H75.5807L76.8704 68.7794H79.1194L80.4563 76.7869H79.1352L78.6947 74.1328ZM78.0028 69.994L77.4524 73.3679H78.5533L78.0028 69.994ZM88.008 71.8048V72.5807H86.5769V76.7981H85.0197V68.8132H88.4642V69.758H86.5769V71.8048H88.008ZM96.3461 69.758H94.4588V71.8048H95.89V72.5807H94.4588V75.8533H96.3461V76.7981H92.9019V68.8132H96.3461V69.758ZM105.046 75.5611C105.046 75.7634 104.991 75.9547 104.881 76.1346C104.771 76.3144 104.621 76.472 104.433 76.607C104.244 76.7419 104.024 76.8487 103.772 76.9274C103.52 77.0061 103.253 77.0455 102.97 77.0455C102.676 77.0455 102.404 77.0061 102.152 76.9274C101.9 76.8487 101.68 76.7419 101.492 76.607C101.303 76.472 101.153 76.3144 101.043 76.1346C100.933 75.9547 100.878 75.7634 100.878 75.5611V73.1993L102.435 74.3127V76.2357C102.435 76.3258 102.48 76.4045 102.569 76.472C102.658 76.5395 102.771 76.5732 102.907 76.5732C103.033 76.5732 103.14 76.5395 103.229 76.472C103.319 76.4045 103.363 76.3258 103.363 76.2357V74.0315L100.878 72.2545V70.1853C100.878 69.9828 100.933 69.7917 101.043 69.6118C101.153 69.4318 101.303 69.2743 101.492 69.1393C101.68 69.0045 101.9 68.8975 102.152 68.8188C102.404 68.7402 102.676 68.7007 102.97 68.7007C103.253 68.7007 103.52 68.7402 103.772 68.8188C104.024 68.8975 104.244 69.0045 104.433 69.1393C104.621 69.2743 104.771 69.4318 104.881 69.6118C104.991 69.7917 105.046 69.9828 105.046 70.1853V72.6594L103.41 71.4899V69.6679C103.41 69.578 103.366 69.4992 103.277 69.4318C103.187 69.3643 103.08 69.3304 102.954 69.3304C102.818 69.3304 102.705 69.3643 102.616 69.4318C102.527 69.4992 102.482 69.578 102.482 69.6679V71.771L105.046 73.6042V75.5611ZM113.903 68.7908V69.7466H112.362V76.7981H110.805V69.7466H109.263V68.7908H113.903Z" fill="#ED3237"/>
<path d="M137.93 75.5611C137.93 75.7634 137.875 75.9547 137.765 76.1346C137.654 76.3144 137.505 76.472 137.316 76.607C137.128 76.7419 136.907 76.8487 136.656 76.9274C136.404 77.0061 136.137 77.0455 135.854 77.0455C135.56 77.0455 135.288 77.0061 135.036 76.9274C134.784 76.8487 134.564 76.7419 134.375 76.607C134.187 76.472 134.037 76.3144 133.927 76.1346C133.817 75.9547 133.762 75.7634 133.762 75.5611V73.1993L135.319 74.3127V76.2357C135.319 76.3258 135.363 76.4045 135.453 76.472C135.542 76.5395 135.654 76.5732 135.791 76.5732C135.916 76.5732 136.024 76.5395 136.113 76.472C136.202 76.4045 136.247 76.3258 136.247 76.2357V74.0315L133.762 72.2545V70.1853C133.762 69.9828 133.817 69.7917 133.927 69.6118C134.037 69.4318 134.187 69.2743 134.375 69.1393C134.564 69.0045 134.784 68.8975 135.036 68.8188C135.288 68.7402 135.56 68.7007 135.854 68.7007C136.137 68.7007 136.404 68.7402 136.656 68.8188C136.907 68.8975 137.128 69.0045 137.316 69.1393C137.505 69.2743 137.654 69.4318 137.765 69.6118C137.875 69.7917 137.93 69.9828 137.93 70.1853V72.6594L136.294 71.4899V69.6679C136.294 69.578 136.249 69.4992 136.16 69.4318C136.071 69.3643 135.964 69.3304 135.838 69.3304C135.702 69.3304 135.589 69.3643 135.5 69.4318C135.411 69.4992 135.366 69.578 135.366 69.6679V71.771L137.93 73.6042V75.5611ZM146.787 68.7908V69.7466H145.246V76.7981H143.688V69.7466H142.147V68.7908H146.787ZM153.631 73.3905C153.631 73.2931 153.586 73.2124 153.497 73.1487C153.408 73.0849 153.301 73.053 153.175 73.053C153.038 73.053 152.926 73.0849 152.837 73.1487C152.747 73.2124 152.703 73.2931 152.703 73.3905V76.8093H151.162V68.8132H152.152L152.2 68.802C152.504 68.682 152.829 68.622 153.175 68.622C153.447 68.622 153.704 68.6595 153.945 68.7345C154.186 68.8095 154.399 68.9126 154.582 69.0437C154.766 69.1749 154.91 69.3267 155.015 69.4992C155.12 69.6716 155.172 69.8591 155.172 70.0615V71.7822C155.172 71.9847 155.114 72.1795 154.999 72.367C154.884 72.5544 154.721 72.7156 154.511 72.8507L154.386 72.9293L154.511 73.008C154.721 73.1431 154.884 73.3024 154.999 73.486C155.114 73.6698 155.172 73.8628 155.172 74.0653V76.8093H153.631V73.3905ZM152.703 72.1984C152.703 72.2958 152.747 72.3763 152.837 72.4401C152.926 72.5038 153.038 72.5357 153.175 72.5357C153.301 72.5357 153.408 72.5038 153.497 72.4401C153.586 72.3763 153.631 72.2958 153.631 72.1984V69.8029C153.631 69.7053 153.586 69.6248 153.497 69.5612C153.408 69.4973 153.301 69.4654 153.175 69.4654C153.038 69.4654 152.926 69.4973 152.837 69.5612C152.747 69.6248 152.703 69.7053 152.703 69.8029V72.1984ZM163.84 75.5948C163.84 75.7897 163.788 75.9753 163.683 76.1515C163.578 76.3276 163.434 76.4795 163.251 76.607C163.067 76.7344 162.855 76.8355 162.614 76.9106C162.372 76.9856 162.116 77.023 161.843 77.023C161.56 77.023 161.298 76.9856 161.057 76.9106C160.815 76.8355 160.603 76.7344 160.42 76.607C160.236 76.4795 160.092 76.3276 159.987 76.1515C159.882 75.9753 159.83 75.7897 159.83 75.5948V70.0841C159.83 69.8891 159.882 69.7053 159.987 69.5329C160.092 69.3605 160.236 69.2086 160.42 69.0775C160.603 68.9463 160.815 68.8432 161.057 68.7682C161.298 68.6932 161.56 68.6558 161.843 68.6558C162.116 68.6558 162.372 68.6932 162.614 68.7682C162.855 68.8432 163.067 68.9463 163.251 69.0775C163.434 69.2086 163.578 69.3605 163.683 69.5329C163.788 69.7053 163.84 69.8891 163.84 70.0841V75.5948ZM162.299 69.7466C162.299 69.6492 162.255 69.5685 162.165 69.5048C162.076 69.441 161.969 69.4092 161.843 69.4092C161.707 69.4092 161.594 69.441 161.505 69.5048C161.416 69.5685 161.371 69.6492 161.371 69.7466V76.0558C161.371 76.1458 161.416 76.2245 161.505 76.292C161.594 76.3596 161.707 76.3933 161.843 76.3933C161.969 76.3933 162.076 76.3596 162.165 76.292C162.255 76.2245 162.299 76.1458 162.299 76.0558V69.7466ZM171.455 76.7531L170.181 71.3099L169.882 70.0953V71.3323V76.7869H168.561V68.7794H170.653L171.801 73.6603L172.1 74.8188V73.6379V68.7794H173.421V76.7531H172.1H171.455ZM182.168 76.7869H181.193L181.146 76.7981C180.999 76.8656 180.842 76.9144 180.674 76.9443C180.506 76.9744 180.333 76.9893 180.155 76.9893C179.872 76.9893 179.61 76.9518 179.368 76.8768C179.127 76.8018 178.915 76.7007 178.732 76.5732C178.548 76.4458 178.404 76.2939 178.299 76.1176C178.194 75.9415 178.142 75.7559 178.142 75.5611V70.0503C178.142 69.8554 178.194 69.6716 178.299 69.4992C178.404 69.3267 178.548 69.1749 178.732 69.0437C178.915 68.9126 179.127 68.8095 179.368 68.7345C179.61 68.6595 179.872 68.622 180.155 68.622C180.428 68.622 180.684 68.6595 180.925 68.7345C181.167 68.8095 181.379 68.9126 181.563 69.0437C181.746 69.1749 181.89 69.3267 181.995 69.4992C182.1 69.6716 182.152 69.8554 182.152 70.0503V72.7944L180.642 71.7259C180.642 71.7185 180.64 71.7147 180.635 71.7147C180.629 71.7147 180.627 71.711 180.627 71.7035V69.6567C180.627 69.5593 180.579 69.4786 180.485 69.4149C180.391 69.3511 180.281 69.3192 180.155 69.3192C180.019 69.3192 179.906 69.3511 179.817 69.4149C179.728 69.4786 179.683 69.5593 179.683 69.6567V75.9659C179.683 76.0558 179.728 76.1326 179.817 76.1964C179.906 76.2601 180.019 76.292 180.155 76.292C180.281 76.292 180.391 76.2601 180.485 76.1964C180.579 76.1326 180.627 76.0558 180.627 75.9659V74.0539H180.328V72.4458L180.627 72.6594V72.6482L182.152 73.7503V73.8628H182.168V76.7869ZM190.443 69.758H188.556V71.8048H189.987V72.5807H188.556V75.8533H190.443V76.7981H186.999V68.8132H190.443V69.758ZM199.143 75.5611C199.143 75.7634 199.088 75.9547 198.978 76.1346C198.868 76.3144 198.718 76.472 198.53 76.607C198.341 76.7419 198.121 76.8487 197.869 76.9274C197.617 77.0061 197.35 77.0455 197.067 77.0455C196.773 77.0455 196.501 77.0061 196.249 76.9274C195.998 76.8487 195.777 76.7419 195.589 76.607C195.4 76.472 195.25 76.3144 195.14 76.1346C195.03 75.9547 194.975 75.7634 194.975 75.5611V73.1993L196.532 74.3127V76.2357C196.532 76.3258 196.577 76.4045 196.666 76.472C196.755 76.5395 196.868 76.5732 197.004 76.5732C197.13 76.5732 197.237 76.5395 197.326 76.472C197.416 76.4045 197.46 76.3258 197.46 76.2357V74.0315L194.975 72.2545V70.1853C194.975 69.9828 195.03 69.7917 195.14 69.6118C195.25 69.4318 195.4 69.2743 195.589 69.1393C195.777 69.0045 195.998 68.8975 196.249 68.8188C196.501 68.7402 196.773 68.7007 197.067 68.7007C197.35 68.7007 197.617 68.7402 197.869 68.8188C198.121 68.8975 198.341 69.0045 198.53 69.1393C198.718 69.2743 198.868 69.4318 198.978 69.6118C199.088 69.7917 199.143 69.9828 199.143 70.1853V72.6594L197.507 71.4899V69.6679C197.507 69.578 197.463 69.4992 197.374 69.4318C197.285 69.3643 197.177 69.3304 197.051 69.3304C196.915 69.3304 196.802 69.3643 196.713 69.4318C196.624 69.4992 196.579 69.578 196.579 69.6679V71.771L199.143 73.6042V75.5611ZM208 68.7908V69.7466H206.459V76.7981H204.902V69.7466H203.36V68.7908H208Z" fill="#ED3237"/>
<path d="M31.3874 26.517L22.1558 32.0073V76.845H31.3874V26.517Z" fill="#ED3237"/>
<path d="M19.3864 36.5825L11.0779 40.9748V76.845H19.3864V36.5825Z" fill="#ED3237"/>
<path d="M8.30841 46.6482L-1.71661e-05 49.9424V71.845C-1.71661e-05 74.6065 2.23856 76.845 4.99998 76.845H8.30841V46.6482Z" fill="#ED3237"/>
</svg>
