<svg width="24" height="24" viewBox="0 0 24 24" fill="none" xmlns="http://www.w3.org/2000/svg">
<g clip-path="url(#clip0_214_5131)">
<path d="M12 21C16.9706 21 21 16.9706 21 12C21 7.02944 16.9706 3 12 3C7.02944 3 3 7.02944 3 12C3 16.9706 7.02944 21 12 21Z" stroke="black" stroke-width="1.5" stroke-linecap="round" stroke-linejoin="round"/>
<path d="M15 8H9H10C10.7956 8 11.5587 8.31607 12.1213 8.87868C12.6839 9.44129 13 10.2044 13 11C13 11.7956 12.6839 12.5587 12.1213 13.1213C11.5587 13.6839 10.7956 14 10 14H9L12 17" stroke="black" stroke-width="1.5" stroke-linecap="round" stroke-linejoin="round"/>
<path d="M9 11H15" stroke="black" stroke-width="1.5" stroke-linecap="round" stroke-linejoin="round"/>
</g>
<defs>
<clipPath id="clip0_214_5131">
<rect width="24" height="24" fill="white"/>
</clipPath>
</defs>
</svg>
