<svg width="64" height="64" viewBox="0 0 64 64" fill="none" xmlns="http://www.w3.org/2000/svg">
<g clip-path="url(#clip0_214_5099)">
<path d="M47.4667 52.8453L41.6747 55.88C41.5028 55.9694 41.3094 56.0094 41.1162 55.9953C40.9229 55.9812 40.7374 55.9137 40.5803 55.8003C40.4232 55.6869 40.3007 55.532 40.2264 55.353C40.1522 55.1741 40.1292 54.978 40.16 54.7866L41.2667 48.3573L36.5814 43.8053C36.4415 43.6701 36.3425 43.4983 36.2956 43.3095C36.2487 43.1208 36.2559 42.9226 36.3162 42.7377C36.3765 42.5528 36.4876 42.3886 36.6369 42.2638C36.7861 42.139 36.9674 42.0587 37.16 42.032L43.6347 41.0933L46.5307 35.2453C46.6173 35.0711 46.7508 34.9246 46.9162 34.8221C47.0815 34.7197 47.2722 34.6654 47.4667 34.6654C47.6612 34.6654 47.8519 34.7197 48.0172 34.8221C48.1826 34.9246 48.3161 35.0711 48.4027 35.2453L51.2987 41.0933L57.7734 42.032C57.9655 42.0596 58.146 42.1405 58.2946 42.2654C58.4431 42.3903 58.5538 42.5542 58.614 42.7388C58.6742 42.9233 58.6815 43.1209 58.6353 43.3094C58.589 43.4979 58.4909 43.6697 58.352 43.8053L53.6667 48.3573L54.7707 54.784C54.8038 54.9756 54.7826 55.1727 54.7093 55.3529C54.636 55.533 54.5137 55.6891 54.3563 55.8032C54.1988 55.9173 54.0125 55.985 53.8185 55.9986C53.6244 56.0122 53.4305 55.9711 53.2587 55.88L47.4667 52.8453V52.8453Z" stroke="#4F4F4F" stroke-width="1.5" stroke-linecap="round" stroke-linejoin="round"/>
<path d="M16.5333 52.8453L10.7413 55.88C10.5695 55.9694 10.3761 56.0094 10.1828 55.9953C9.98958 55.9812 9.80403 55.9137 9.64692 55.8003C9.4898 55.6869 9.3673 55.532 9.29309 55.353C9.21888 55.1741 9.19589 54.978 9.22667 54.7866L10.3333 48.3573L5.64801 43.8053C5.50816 43.6701 5.40914 43.4983 5.36225 43.3095C5.31537 43.1208 5.3225 42.9226 5.38284 42.7377C5.44318 42.5528 5.5543 42.3886 5.70351 42.2638C5.85271 42.139 6.034 42.0587 6.22667 42.032L12.7013 41.0933L15.5973 35.2453C15.684 35.0711 15.8174 34.9246 15.9828 34.8221C16.1482 34.7197 16.3388 34.6654 16.5333 34.6654C16.7279 34.6654 16.9185 34.7197 17.0839 34.8221C17.2492 34.9246 17.3827 35.0711 17.4693 35.2453L20.3653 41.0933L26.84 42.032C27.0321 42.0596 27.2127 42.1405 27.3612 42.2654C27.5098 42.3903 27.6204 42.5542 27.6806 42.7388C27.7408 42.9233 27.7482 43.1209 27.7019 43.3094C27.6556 43.4979 27.5575 43.6697 27.4187 43.8053L22.7333 48.3573L23.8373 54.784C23.8705 54.9756 23.8492 55.1727 23.7759 55.3529C23.7027 55.533 23.5804 55.6891 23.4229 55.8032C23.2654 55.9173 23.0791 55.985 22.8851 55.9986C22.6911 56.0122 22.4972 55.9711 22.3253 55.88L16.5333 52.8453V52.8453Z" stroke="#4F4F4F" stroke-width="1.5" stroke-linecap="round" stroke-linejoin="round"/>
<path d="M32 26.1787L26.208 29.2133C26.0361 29.3028 25.8428 29.3427 25.6495 29.3287C25.4562 29.3146 25.2707 29.2471 25.1136 29.1337C24.9565 29.0203 24.834 28.8654 24.7598 28.6864C24.6856 28.5074 24.6626 28.3113 24.6933 28.12L25.8 21.6907L21.1147 17.1387C20.9748 17.0035 20.8758 16.8317 20.8289 16.6429C20.782 16.4541 20.7892 16.256 20.8495 16.0711C20.9099 15.8862 21.021 15.7219 21.1702 15.5971C21.3194 15.4724 21.5007 15.392 21.6933 15.3653L28.168 14.4267L31.064 8.57868C31.1506 8.40451 31.2841 8.25795 31.4495 8.1555C31.6148 8.05306 31.8055 7.99878 32 7.99878C32.1945 7.99878 32.3852 8.05306 32.5506 8.1555C32.7159 8.25795 32.8494 8.40451 32.936 8.57868L35.832 14.4267L42.3067 15.3653C42.4988 15.393 42.6793 15.4738 42.8279 15.5987C42.9764 15.7236 43.0871 15.8876 43.1473 16.0721C43.2075 16.2566 43.2149 16.4543 43.1686 16.6428C43.1223 16.8313 43.0242 17.0031 42.8853 17.1387L38.2 21.6907L39.304 28.1173C39.3372 28.309 39.3159 28.5061 39.2426 28.6863C39.1694 28.8664 39.0471 29.0224 38.8896 29.1366C38.7321 29.2507 38.5458 29.3184 38.3518 29.332C38.1578 29.3456 37.9638 29.3045 37.792 29.2133L32 26.1787V26.1787Z" stroke="#4F4F4F" stroke-width="1.5" stroke-linecap="round" stroke-linejoin="round"/>
</g>
<defs>
<clipPath id="clip0_214_5099">
<rect width="64" height="64" fill="white"/>
</clipPath>
</defs>
</svg>
