<svg width="64" height="64" viewBox="0 0 64 64" fill="none" xmlns="http://www.w3.org/2000/svg">
<g clip-path="url(#clip0_222_8474)">
<path d="M45.3547 15.4863L38.5707 18.9727L32 15.5192C27.0371 12.9024 25.3965 12.0738 25.2488 12.1149C24.8961 12.1969 11.2871 19.1531 11.1477 19.3172C11.0082 19.4731 11 20.3754 11 35.8055V52.1297L11.2461 52.3758C11.4266 52.5563 11.5496 52.6137 11.6891 52.5891C11.8039 52.5645 14.9047 50.9895 18.5961 49.0863L25.3062 45.6164L25.5934 45.7559C25.7574 45.8297 28.6531 47.3719 32.041 49.1848C35.4207 50.9895 38.2836 52.507 38.4066 52.5481C38.5953 52.6219 39.35 52.2527 45.6254 49.0453C49.5629 47.0274 52.7129 45.3703 52.8195 45.2555L53 45.0504V28.7262V12.402L52.7949 12.2051C52.6801 12.082 52.4996 12 52.3684 12C52.2289 12 49.4562 13.3781 45.3547 15.4863ZM51.7531 29.1117L51.7285 44.5008L45.5023 47.6918C42.0734 49.4473 39.2434 50.8828 39.2023 50.8828C39.1695 50.8828 39.1449 43.9594 39.1531 35.4938L39.1777 20.1129L39.6289 19.8668C41.1547 19.0547 51.5809 13.7309 51.6711 13.7309C51.7531 13.7227 51.7695 16.8235 51.7531 29.1117ZM24.6828 29.1528L24.6582 44.509L18.5059 47.6918C15.1262 49.4391 12.3289 50.8746 12.2961 50.8828C12.2551 50.8828 12.2305 43.9676 12.2305 35.5102C12.2305 23.3449 12.2551 20.1129 12.3289 20.0637C12.534 19.9324 24.5762 13.8129 24.6418 13.8047C24.6746 13.8047 24.691 20.7117 24.6828 29.1528ZM32 16.9465L37.8652 20.0227L37.8898 35.4199C37.9062 50.0625 37.898 50.8172 37.7668 50.768C37.6191 50.7106 28.5547 45.9035 26.832 44.9684L25.9707 44.5008L25.9461 29.1445C25.9297 16.8645 25.9461 13.7965 26.0281 13.8293C26.0855 13.8539 28.7762 15.2567 32 16.9465Z" fill="#4F4F4F"/>
<path d="M45.2891 23.3695C43.0988 24.4933 41.3105 25.4613 41.2121 25.5844C41.1055 25.6992 41.0234 25.8633 41.0234 25.9453C41.0234 26.1996 41.3762 26.5441 41.6469 26.5441C41.8766 26.5441 49.4973 22.7133 49.8254 22.4344C50.0551 22.2375 50.0141 21.7289 49.7516 21.5238C49.6285 21.4254 49.4563 21.3515 49.3578 21.3598C49.2676 21.3598 47.4301 22.2621 45.2891 23.3695Z" fill="#4F4F4F"/>
<path d="M45.1661 27.8977C40.884 30.1043 40.8922 30.0961 41.1055 30.6293C41.2204 30.9 41.409 31.0312 41.6797 31.0312C41.8848 31.0312 49.5137 27.143 49.7844 26.9051C50.0387 26.6754 50.0387 26.1668 49.7844 25.9945C49.686 25.9207 49.4891 25.8633 49.3497 25.8715C49.1938 25.8715 47.6598 26.6098 45.1661 27.8977Z" fill="#4F4F4F"/>
<path d="M45.1988 32.352C41.1711 34.4192 41.0234 34.5176 41.0234 34.9278C41.0234 35.1575 41.3926 35.4856 41.6551 35.4774C41.9176 35.4692 49.448 31.6629 49.7844 31.3676C50.0469 31.1379 50.0305 30.6868 49.7516 30.4653C49.6285 30.3668 49.4562 30.293 49.3578 30.293C49.2676 30.3012 47.3891 31.22 45.1988 32.352Z" fill="#4F4F4F"/>
<path d="M21.0734 20.1867C20.4746 20.4984 18.7109 21.409 17.1523 22.2129C15.5937 23.0086 14.2484 23.7387 14.1582 23.8207C14.0023 23.9766 13.9941 24.0914 13.9941 26.9379V29.8992L14.191 30.0551C14.2977 30.1371 14.4699 30.2109 14.5848 30.2109C14.7816 30.2109 22.3449 26.3719 22.6812 26.1012C22.8535 25.9617 22.8535 25.9125 22.8535 23.0004C22.8535 20.1539 22.8453 20.0391 22.6895 19.8832C22.3613 19.5715 22.2301 19.5961 21.0734 20.1867ZM21.582 23.3121V25.2727L18.8586 26.6918C17.3574 27.4629 15.9301 28.2094 15.6922 28.3406L15.2656 28.5867L15.282 26.5934L15.3066 24.6082L18.4238 22.984C20.1383 22.0898 21.5492 21.3516 21.5656 21.3516C21.5738 21.3516 21.582 22.2375 21.582 23.3121Z" fill="#4F4F4F"/>
<path d="M18.1368 34.1977C15.9958 35.3051 14.1747 36.2812 14.1008 36.3797C13.7809 36.7488 14.068 37.3477 14.5684 37.3477C14.8637 37.3477 22.4516 33.4758 22.7141 33.1969C22.8126 33.082 22.8946 32.9016 22.8946 32.7867C22.8946 32.5078 22.5501 32.1797 22.263 32.1879C22.1317 32.1879 20.3434 33.0656 18.1368 34.1977Z" fill="#4F4F4F"/>
<path d="M20.6223 37.4051C19.7774 37.8398 17.9727 38.7586 16.6192 39.4559C15.2657 40.1531 14.109 40.7766 14.0598 40.8504C13.7973 41.1949 14.109 41.8594 14.5356 41.8594C14.6832 41.8594 21.7707 38.291 22.55 37.8234C22.993 37.5527 23.0094 36.9621 22.5664 36.7324C22.4352 36.6668 22.2957 36.6094 22.2465 36.6094C22.2055 36.6094 21.4754 36.9621 20.6223 37.4051Z" fill="#4F4F4F"/>
<path d="M28.0214 21.0645C27.7918 21.2859 27.7589 21.5648 27.9394 21.8191C28.0871 22.0324 35.3468 25.8633 35.6011 25.8633C36.0277 25.8633 36.3394 25.207 36.0687 24.8625C35.9046 24.6492 28.6695 20.8594 28.4316 20.8594C28.3168 20.8594 28.1281 20.9496 28.0214 21.0645Z" fill="#4F4F4F"/>
<path d="M28.1691 26.2734C27.841 26.4047 27.7098 26.9051 27.9312 27.1922C28.1117 27.4301 35.3305 31.1953 35.6012 31.1953C35.7652 31.1953 35.8965 31.1215 36.0113 30.982C36.2164 30.7277 36.2328 30.4816 36.0605 30.2355C35.9375 30.0551 28.6613 26.1914 28.4644 26.1996C28.3988 26.1996 28.2676 26.2324 28.1691 26.2734Z" fill="#4F4F4F"/>
<path d="M28.2512 32.516C27.8164 32.6719 27.8164 32.6965 27.8164 36.1992C27.8164 38.6109 27.841 39.4887 27.923 39.6363C27.9887 39.7758 29.0715 40.3828 31.6555 41.7445C33.657 42.8027 35.3797 43.6887 35.4863 43.7133C35.6422 43.7543 35.7488 43.7051 35.9375 43.5164L36.1836 43.2703V39.9973C36.1836 37.5692 36.159 36.6832 36.077 36.5356C36.0113 36.4043 34.9285 35.7891 32.3609 34.4356C30.3676 33.3856 28.6695 32.516 28.5793 32.4914C28.4973 32.4668 28.3496 32.475 28.2512 32.516ZM32.4348 35.9121L34.8711 37.2V39.6117V42.0234L34.0344 41.5805C33.5668 41.3344 32.2871 40.6535 31.1797 40.0629L29.1699 38.9965L29.1453 36.5684L29.1289 34.132L29.5555 34.3781C29.7934 34.5094 31.0895 35.1984 32.4348 35.9121Z" fill="#4F4F4F"/>
</g>
<defs>
<clipPath id="clip0_222_8474">
<rect width="64" height="64" fill="white"/>
</clipPath>
</defs>
</svg>
