<svg width="64" height="64" viewBox="0 0 64 64" fill="none" xmlns="http://www.w3.org/2000/svg">
<g clip-path="url(#clip0_212_5062)">
<path d="M16 56C18.9455 56 21.3333 53.6122 21.3333 50.6667C21.3333 47.7212 18.9455 45.3334 16 45.3334C13.0544 45.3334 10.6666 47.7212 10.6666 50.6667C10.6666 53.6122 13.0544 56 16 56Z" stroke="#4F4F4F" stroke-width="1.5" stroke-linecap="round" stroke-linejoin="round"/>
<path d="M45.3333 56C48.2788 56 50.6667 53.6122 50.6667 50.6667C50.6667 47.7212 48.2788 45.3334 45.3333 45.3334C42.3878 45.3334 40 47.7212 40 50.6667C40 53.6122 42.3878 56 45.3333 56Z" stroke="#4F4F4F" stroke-width="1.5" stroke-linecap="round" stroke-linejoin="round"/>
<path d="M45.3333 45.3333H16V8H10.6666" stroke="#4F4F4F" stroke-width="1.5" stroke-linecap="round" stroke-linejoin="round"/>
<path d="M16 13.3334L53.3333 16L50.6667 34.6667H16" stroke="#4F4F4F" stroke-width="1.5" stroke-linecap="round" stroke-linejoin="round"/>
</g>
<defs>
<clipPath id="clip0_212_5062">
<rect width="64" height="64" fill="white"/>
</clipPath>
</defs>
</svg>
