<svg width="15" height="13" viewBox="0 0 15 13" fill="none" xmlns="http://www.w3.org/2000/svg">
<g clip-path="url(#clip0_59_386)">
<path d="M7.09069 2.92097C6.78346 2.59402 6.61644 2.1598 6.62535 1.71125C6.63427 1.26269 6.81843 0.835451 7.13841 0.520976C7.45839 0.206502 7.88876 0.0297825 8.3374 0.0286463C8.78604 0.0275101 9.2173 0.202047 9.53887 0.514897L14.2897 5.34629C14.6047 5.66746 14.7812 6.09941 14.7812 6.54932C14.7812 6.99923 14.6047 7.43118 14.2897 7.75236L9.63511 12.4863C9.47851 12.653 9.29019 12.7866 9.08122 12.8795C8.87224 12.9724 8.64682 13.0226 8.41818 13.0271C8.18954 13.0316 7.9623 12.9905 7.7498 12.906C7.5373 12.8215 7.34381 12.6954 7.18072 12.5351C7.01762 12.3748 6.88819 12.1835 6.80002 11.9725C6.71186 11.7615 6.66675 11.535 6.66733 11.3064C6.66791 11.0777 6.71417 10.8514 6.8034 10.6409C6.89263 10.4303 7.02302 10.2397 7.18693 10.0802L9.00111 8.22996L1.70229 8.19508C1.24699 8.19125 0.811853 8.0067 0.492611 7.68205C0.173368 7.35739 -0.00382903 6.91921 -2.53818e-07 6.46391C0.00382852 6.0086 0.18837 5.57346 0.513027 5.25422C0.837684 4.93498 1.27586 4.75778 1.73117 4.76161L8.93133 4.7953L7.09069 2.92097Z" fill="#535763" fill-opacity="0.5"/>
</g>
<defs>
<clipPath id="clip0_59_386">
<rect width="14.7829" height="13" fill="white"/>
</clipPath>
</defs>
</svg>
