<svg width="17" height="20" viewBox="0 0 17 20" fill="none" xmlns="http://www.w3.org/2000/svg">
<g clip-path="url(#clip0_2_805)">
<path d="M0.577799 19.4206H0V20H15.0537V19.4206H14.7282V16.6537C14.7282 16.601 14.7073 16.5505 14.67 16.5132C14.6328 16.476 14.5823 16.4551 14.5296 16.4551H12.2949C12.2423 16.4551 12.1918 16.476 12.1545 16.5132C12.1173 16.5505 12.0964 16.601 12.0964 16.6537V19.4206H7.889V15.4997C7.88857 15.4296 7.86043 15.3625 7.81072 15.3131C7.76101 15.2637 7.69378 15.236 7.6237 15.236H3.24544C3.17536 15.236 3.10813 15.2637 3.05842 15.3131C3.00871 15.3625 2.98057 15.4296 2.98014 15.4997V19.4206H0V0.423182C0.00913412 0.31537 0.0564633 0.214363 0.133464 0.138351C0.219606 0.0515016 0.336662 0.00233822 0.458984 0.00163269H10.4053C10.4659 0.0018045 10.5258 0.0139743 10.5817 0.0374398C10.6376 0.0609054 10.6882 0.0952022 10.7308 0.138351L10.752 0.15951C10.8276 0.244114 10.8693 0.353654 10.8691 0.467127V5.62663H16.6016C16.6526 5.62663 16.7032 5.63669 16.7504 5.65624C16.7976 5.67579 16.8405 5.70444 16.8766 5.74056C16.9128 5.77633 16.9415 5.81892 16.961 5.86586C16.9806 5.9128 16.9906 5.96315 16.9906 6.014V19.7331C16.9906 19.8034 16.9626 19.8709 16.9129 19.9207C16.8631 19.9704 16.7956 19.9984 16.7253 19.9984H15.0537V19.4189H16.4388V6.1849H10.8708V19.4238H10.2913V0.579432H0.577799V19.4206ZM14.3376 19.4206H12.4935V16.8457H14.3376V19.4206ZM13.9079 7.32422H15.3418C15.3532 7.32422 15.363 7.3405 15.363 7.36003V8.28939C15.363 8.30567 15.3532 8.32357 15.3418 8.32357H13.9079C13.8965 8.32357 13.8867 8.30892 13.8867 8.28939V7.36003C13.8867 7.3405 13.8965 7.32422 13.9079 7.32422ZM13.9079 13.7695H15.3418C15.3532 13.7695 15.363 13.7858 15.363 13.8037V14.7331C15.363 14.751 15.3532 14.7689 15.3418 14.7689H13.9079C13.8965 14.7689 13.8867 14.7526 13.8867 14.7331V13.8037C13.8867 13.7858 13.8965 13.7695 13.9079 13.7695ZM11.4909 13.7695H12.9232C12.9362 13.7695 12.946 13.7858 12.946 13.8037V14.7331C12.946 14.751 12.9362 14.7689 12.9232 14.7689H11.4909C11.4779 14.7689 11.4681 14.7526 11.4681 14.7331V13.8037C11.4681 13.7858 11.4779 13.7695 11.4909 13.7695ZM13.9079 11.6211H15.3418C15.3532 11.6211 15.363 11.6374 15.363 11.6569V12.5863C15.363 12.6042 15.3532 12.6221 15.3418 12.6221H13.9079C13.8965 12.6221 13.8867 12.6058 13.8867 12.5863V11.6569C13.8867 11.6357 13.8965 11.6211 13.9079 11.6211ZM13.9079 9.47266H15.3418C15.3532 9.47266 15.363 9.48894 15.363 9.50847V10.4378C15.363 10.4557 15.3532 10.4736 15.3418 10.4736H13.9079C13.8965 10.4736 13.8867 10.4574 13.8867 10.4378V9.50847C13.8867 9.48894 13.8965 9.47266 13.9079 9.47266ZM11.4909 7.32422H12.9232C12.9362 7.32422 12.946 7.3405 12.946 7.36003V8.28939C12.946 8.30567 12.9362 8.32357 12.9232 8.32357H11.4909C11.4779 8.32357 11.4681 8.30892 11.4681 8.28939V7.36003C11.4681 7.3405 11.4779 7.32422 11.4909 7.32422ZM11.4909 11.6211H12.9232C12.9362 11.6211 12.946 11.6374 12.946 11.6569V12.5863C12.946 12.6042 12.9362 12.6221 12.9232 12.6221H11.4909C11.4779 12.6221 11.4681 12.6058 11.4681 12.5863V11.6569C11.4681 11.6357 11.4779 11.6211 11.4909 11.6211ZM11.4909 9.47266H12.9232C12.9362 9.47266 12.946 9.48894 12.946 9.50847V10.4378C12.946 10.4557 12.9362 10.4736 12.9232 10.4736H11.4909C11.4779 10.4736 11.4681 10.4574 11.4681 10.4378V9.50847C11.4681 9.48894 11.4779 9.47266 11.4909 9.47266ZM7.3584 19.4206H3.51074V15.765H7.3584V19.4206ZM1.97428 2.03777H3.53353C3.54505 2.03817 3.556 2.04293 3.56415 2.05109C3.57231 2.05924 3.57707 2.07018 3.57747 2.08171V3.64258C3.57707 3.65411 3.57231 3.66505 3.56415 3.67321C3.556 3.68136 3.54505 3.68612 3.53353 3.68653H1.97428C1.96276 3.68612 1.95181 3.68136 1.94366 3.67321C1.9355 3.66505 1.93074 3.65411 1.93034 3.64258V2.08171C1.93074 2.07018 1.9355 2.05924 1.94366 2.05109C1.95181 2.04293 1.96276 2.03817 1.97428 2.03777ZM7.33561 2.03777H8.89486C8.90638 2.03817 8.91733 2.04293 8.92548 2.05109C8.93364 2.05924 8.9384 2.07018 8.9388 2.08171V3.64258C8.9384 3.65411 8.93364 3.66505 8.92548 3.67321C8.91733 3.68136 8.90638 3.68612 8.89486 3.68653H7.33561C7.32409 3.68612 7.31314 3.68136 7.30499 3.67321C7.29683 3.66505 7.29207 3.65411 7.29167 3.64258V2.08171C7.29207 2.07018 7.29683 2.05924 7.30499 2.05109C7.31314 2.04293 7.32409 2.03817 7.33561 2.03777ZM4.65495 2.03777H6.21419C6.22572 2.03817 6.23666 2.04293 6.24482 2.05109C6.25297 2.05924 6.25773 2.07018 6.25814 2.08171V3.64258C6.25773 3.65411 6.25297 3.66505 6.24482 3.67321C6.23666 3.68136 6.22572 3.68612 6.21419 3.68653H4.65495C4.64342 3.68612 4.63248 3.68136 4.62432 3.67321C4.61617 3.66505 4.61141 3.65411 4.611 3.64258V2.08171C4.61141 2.07018 4.61617 2.05924 4.62432 2.05109C4.63248 2.04293 4.64342 2.03817 4.65495 2.03777ZM1.97428 5.41667H3.53353C3.54505 5.41708 3.556 5.42184 3.56415 5.42999C3.57231 5.43815 3.57707 5.44909 3.57747 5.46062V7.02149C3.57707 7.03302 3.57231 7.04396 3.56415 7.05211C3.556 7.06027 3.54505 7.06503 3.53353 7.06543H1.97428C1.96276 7.06503 1.95181 7.06027 1.94366 7.05211C1.9355 7.04396 1.93074 7.03302 1.93034 7.02149V5.46062C1.93074 5.44909 1.9355 5.43815 1.94366 5.42999C1.95181 5.42184 1.96276 5.41708 1.97428 5.41667ZM7.33561 5.41667H8.89486C8.90638 5.41708 8.91733 5.42184 8.92548 5.42999C8.93364 5.43815 8.9384 5.44909 8.9388 5.46062V7.02149C8.9384 7.03302 8.93364 7.04396 8.92548 7.05211C8.91733 7.06027 8.90638 7.06503 8.89486 7.06543H7.33561C7.32409 7.06503 7.31314 7.06027 7.30499 7.05211C7.29683 7.04396 7.29207 7.03302 7.29167 7.02149V5.46062C7.29207 5.44909 7.29683 5.43815 7.30499 5.42999C7.31314 5.42184 7.32409 5.41708 7.33561 5.41667ZM4.65495 5.41667H6.21419C6.22572 5.41708 6.23666 5.42184 6.24482 5.42999C6.25297 5.43815 6.25773 5.44909 6.25814 5.46062V7.02149C6.25773 7.03302 6.25297 7.04396 6.24482 7.05211C6.23666 7.06027 6.22572 7.06503 6.21419 7.06543H4.65495C4.64342 7.06503 4.63248 7.06027 4.62432 7.05211C4.61617 7.04396 4.61141 7.03302 4.611 7.02149V5.46062C4.61141 5.44909 4.61617 5.43815 4.62432 5.42999C4.63248 5.42184 4.64342 5.41708 4.65495 5.41667ZM1.97428 12.1745H3.53353C3.54518 12.1745 3.55636 12.1791 3.5646 12.1874C3.57284 12.1956 3.57747 12.2068 3.57747 12.2184V13.7777C3.57747 13.7893 3.57284 13.8005 3.5646 13.8087C3.55636 13.817 3.54518 13.8216 3.53353 13.8216H1.97428C1.96263 13.8216 1.95145 13.817 1.94321 13.8087C1.93497 13.8005 1.93034 13.7893 1.93034 13.7777V12.2184C1.93034 12.2068 1.93497 12.1956 1.94321 12.1874C1.95145 12.1791 1.96263 12.1745 1.97428 12.1745ZM7.33561 12.1745H8.89486C8.90651 12.1745 8.91769 12.1791 8.92593 12.1874C8.93417 12.1956 8.9388 12.2068 8.9388 12.2184V13.7777C8.9388 13.7893 8.93417 13.8005 8.92593 13.8087C8.91769 13.817 8.90651 13.8216 8.89486 13.8216H7.33561C7.32396 13.8216 7.31278 13.817 7.30454 13.8087C7.2963 13.8005 7.29167 13.7893 7.29167 13.7777V12.2184C7.29167 12.2068 7.2963 12.1956 7.30454 12.1874C7.31278 12.1791 7.32396 12.1745 7.33561 12.1745ZM4.65495 12.1745H6.21419C6.22585 12.1745 6.23703 12.1791 6.24527 12.1874C6.25351 12.1956 6.25814 12.2068 6.25814 12.2184V13.7777C6.25814 13.7893 6.25351 13.8005 6.24527 13.8087C6.23703 13.817 6.22585 13.8216 6.21419 13.8216H4.65495C4.64329 13.8216 4.63212 13.817 4.62387 13.8087C4.61563 13.8005 4.611 13.7893 4.611 13.7777V12.2184C4.611 12.2068 4.61563 12.1956 4.62387 12.1874C4.63212 12.1791 4.64329 12.1745 4.65495 12.1745ZM1.97428 8.78907H3.53353C3.54518 8.78907 3.55636 8.7937 3.5646 8.80194C3.57284 8.81018 3.57747 8.82136 3.57747 8.83301V10.4004C3.57707 10.4119 3.57231 10.4229 3.56415 10.431C3.556 10.4392 3.54505 10.4439 3.53353 10.4443H1.97428C1.96276 10.4439 1.95181 10.4392 1.94366 10.431C1.9355 10.4229 1.93074 10.4119 1.93034 10.4004V8.83952C1.93034 8.82787 1.93497 8.81669 1.94321 8.80845C1.95145 8.80021 1.96263 8.79558 1.97428 8.79558V8.78907ZM7.33561 8.78907H8.89486C8.90651 8.78907 8.91769 8.7937 8.92593 8.80194C8.93417 8.81018 8.9388 8.82136 8.9388 8.83301V10.4004C8.9384 10.4119 8.93364 10.4229 8.92548 10.431C8.91733 10.4392 8.90638 10.4439 8.89486 10.4443H7.33561C7.32409 10.4439 7.31314 10.4392 7.30499 10.431C7.29683 10.4229 7.29207 10.4119 7.29167 10.4004V8.83952C7.29167 8.82787 7.2963 8.81669 7.30454 8.80845C7.31278 8.80021 7.32396 8.79558 7.33561 8.79558V8.78907ZM4.65495 8.78907H6.21419C6.22585 8.78907 6.23703 8.7937 6.24527 8.80194C6.25351 8.81018 6.25814 8.82136 6.25814 8.83301V10.4004C6.25773 10.4119 6.25297 10.4229 6.24482 10.431C6.23666 10.4392 6.22572 10.4439 6.21419 10.4443H4.65495C4.64342 10.4439 4.63248 10.4392 4.62432 10.431C4.61617 10.4229 4.61141 10.4119 4.611 10.4004V8.83952C4.61006 8.83323 4.61049 8.82681 4.61228 8.8207C4.61406 8.81459 4.61715 8.80894 4.62132 8.80415C4.6255 8.79935 4.63067 8.79552 4.63648 8.79291C4.64228 8.79031 4.64859 8.789 4.65495 8.78907Z" fill="#D41D26"/>
</g>
<defs>
<clipPath id="clip0_2_805">
<rect width="16.9987" height="20" fill="white"/>
</clipPath>
</defs>
</svg>
