<svg width="20" height="20" viewBox="0 0 20 20" fill="none" xmlns="http://www.w3.org/2000/svg">
<g clip-path="url(#clip0_2_808)">
<path d="M5.45469 8.14374C5.58516 7.74864 5.78438 7.62049 6.04688 7.62858L5.87383 7.50341C5.78008 6.22403 6.05508 4.0046 4.78047 3.58439C7.19219 0.335919 9.97187 -1.43051 12.059 1.45905C14.5734 1.60295 15.582 5.95794 13.5766 7.79122L13.5648 7.89936C13.6434 7.87339 13.7219 7.85678 13.7973 7.8504C13.9453 7.83805 14.0871 7.86444 14.2078 7.93427C14.3402 8.01133 14.4414 8.13607 14.4934 8.31276C14.5434 8.48178 14.5453 8.69764 14.4797 8.96288L14.166 9.93274C14.1152 10.0903 14.0688 10.201 13.9676 10.2887C13.8633 10.3785 13.7371 10.4121 13.5418 10.4006C13.5094 10.3989 13.477 10.3951 13.4453 10.3887C13.4298 10.6269 13.3813 10.8611 13.3016 11.0835C13.1934 11.3867 13.0426 11.634 12.8941 11.8622C12.7262 12.1198 12.5484 12.3531 12.3629 12.5626C12.5074 13.1156 12.6937 13.5231 12.9172 13.833C14.0516 14.722 17.1066 14.931 18.1703 15.5773C19.7059 16.514 19.6637 18.3243 20 20H0C0.333203 18.3392 0.298828 16.4991 1.82969 15.5773C3.17812 14.759 6.03945 14.8114 7.17969 13.7509C7.34375 13.4707 7.48242 13.1352 7.58867 12.735C7.34531 12.4591 7.11719 12.1313 6.90938 11.7507L6.89531 11.7264C6.70781 11.3833 6.48125 10.969 6.41016 10.3938L6.34922 10.3951C6.22148 10.3934 6.09844 10.3615 5.9832 10.2904C5.79805 10.1754 5.66836 9.97957 5.58086 9.7586L5.57305 9.73646C5.47461 9.47718 5.42969 9.18171 5.41914 8.95819C5.41523 8.87475 5.41523 8.70913 5.41953 8.55075V8.54862C5.42266 8.41281 5.4293 8.28125 5.43867 8.2076C5.4418 8.18503 5.44688 8.16375 5.45469 8.14374ZM12.6004 14.2609L12.5758 14.229C12.3324 13.9101 12.1273 13.5073 11.9648 12.9824C11.6996 13.2187 11.3992 13.4192 11.0762 13.5682L11.0594 13.5763H11.059C10.6402 13.7755 10.2078 13.8718 9.7793 13.8611C9.54688 13.8556 9.31602 13.8185 9.08906 13.75L9.08047 13.7474C8.70898 13.6397 8.33984 13.4456 7.98672 13.1488C7.84141 13.6052 7.65273 13.9833 7.43203 14.2954L8.75703 17.8223L9.53555 15.8656L9.15547 15.413C8.86992 14.9579 9.03594 14.4295 9.49727 14.3482C9.69883 14.3128 10.5145 14.3077 10.7012 14.3622C11.1191 14.484 11.2438 14.9996 10.9988 15.413L10.6187 15.8656L11.3906 17.8223L12.6004 14.2609ZM8.01523 12.4647L8.03086 12.4791C8.63047 13.1041 9.29492 13.3392 9.92578 13.3123C10.6867 13.2796 11.4059 12.8708 11.9121 12.3054C11.9281 12.2876 11.9465 12.2714 11.9672 12.259C12.1547 12.0542 12.3348 11.8209 12.5047 11.5604C12.6352 11.3598 12.7672 11.144 12.8559 10.8958C12.9422 10.654 12.9914 10.3708 12.9645 10.0226C12.9613 9.96637 12.9734 9.90847 13.0039 9.85823C13.0387 9.80062 13.093 9.76041 13.155 9.74644C13.217 9.73246 13.2815 9.74588 13.3344 9.78372C13.3762 9.81353 13.4187 9.83822 13.4613 9.85525C13.498 9.86972 13.5336 9.87866 13.566 9.88037C13.6344 9.8842 13.6652 9.8842 13.6695 9.88037C13.677 9.87441 13.6922 9.8297 13.7148 9.75945L14.0191 8.82025C14.0578 8.66187 14.0605 8.54777 14.0383 8.47199C14.027 8.43367 14.007 8.4077 13.9828 8.39365C13.9469 8.37279 13.8941 8.36555 13.8328 8.37066C13.6992 8.38173 13.543 8.4524 13.4043 8.56693C13.3535 8.60865 13.2875 8.62866 13.2199 8.61589C13.0898 8.59162 13.002 8.45666 13.0242 8.31489C13.2496 6.88139 13.1465 5.9473 12.8664 5.31037C12.6211 4.75222 12.2297 4.41417 11.8051 4.1617C10.8629 4.94806 10.1996 5.03789 9.53789 5.12688C8.99063 5.20053 8.44453 5.27419 7.72109 5.81957C7.3793 6.07715 7.15156 6.3888 7.03398 6.75068C6.91328 7.12236 6.90391 7.55493 7.00156 8.04496C7.01406 8.09435 7.01289 8.14842 6.99531 8.20036C6.95078 8.33532 6.81328 8.40515 6.68945 8.35661L6.47031 8.27018C6.1875 8.16247 5.98711 8.11223 5.90977 8.30595C5.90352 8.36853 5.89922 8.46433 5.89688 8.5631V8.56523C5.89336 8.70785 5.89336 8.85687 5.89648 8.9318C5.90469 9.10848 5.93867 9.33839 6.0125 9.53338L6.02109 9.55254C6.0707 9.67899 6.13672 9.78628 6.21875 9.83694C6.26016 9.86249 6.30625 9.87441 6.35469 9.87483C6.41406 9.87568 6.48008 9.86206 6.55039 9.8395C6.57266 9.83098 6.59648 9.8263 6.62148 9.82587C6.65283 9.82503 6.68402 9.83092 6.71327 9.84322C6.74252 9.85552 6.76927 9.87397 6.79198 9.89754C6.81468 9.9211 6.83291 9.94931 6.84561 9.98055C6.85832 10.0118 6.86525 10.0455 6.86602 10.0796C6.87891 10.6799 7.11523 11.1116 7.30547 11.4595L7.31875 11.4837C7.53125 11.8729 7.76562 12.1994 8.01523 12.4647Z" fill="#D41D26"/>
</g>
<defs>
<clipPath id="clip0_2_808">
<rect width="20" height="20" fill="white"/>
</clipPath>
</defs>
</svg>
