<svg width="30" height="30" viewBox="0 0 30 30" fill="none" xmlns="http://www.w3.org/2000/svg">
<g filter="url(#filter0_i_11_800)">
<path d="M22.5175 1.78125C22.4179 1.82812 22.289 1.93359 22.2363 2.00977C22.1308 2.17383 21.5624 4.75781 21.5624 5.08008C21.5624 5.49609 21.8788 5.80078 22.3066 5.80078C22.5058 5.80078 22.8222 5.61914 22.9042 5.45508C22.9921 5.29102 23.5546 2.625 23.5546 2.37305C23.5546 1.91016 22.9745 1.57617 22.5175 1.78125Z" fill="white"/>
<path d="M15.1465 2.92383C14.3496 3.12891 13.875 3.9961 14.1328 4.75196C14.2383 5.05078 21.9844 18.4805 22.166 18.6738C22.2304 18.75 22.4179 18.873 22.582 18.9551C23.6367 19.4824 24.8672 18.5215 24.6093 17.373C24.5566 17.1445 22.9922 14.332 21.9668 12.6211L21.8554 12.4336L22.1601 12.2578C23.8828 11.2852 23.8301 8.68945 22.0722 7.82227C21.2754 7.42969 20.5019 7.42969 19.7168 7.81641C19.4941 7.92773 19.3066 8.01562 19.3008 8.00976C19.2949 8.00391 18.709 6.98437 17.9941 5.74219C17.2793 4.5 16.623 3.41016 16.5351 3.32227C16.2187 2.98243 15.5918 2.80664 15.1465 2.92383Z" fill="white"/>
<path d="M27.7265 5.5664C27.5742 5.63086 25.7812 6.66211 25.3652 6.91992C25.0605 7.11328 24.9609 7.2832 24.9609 7.62304C24.9609 7.95703 25.248 8.26172 25.6054 8.30273C25.8574 8.32617 25.9335 8.29101 27.1874 7.57031C28.6113 6.75 28.7109 6.66211 28.7109 6.22265C28.7109 5.74804 28.166 5.3789 27.7265 5.5664Z" fill="white"/>
<path d="M12.8496 6.48633C11.3203 8.45508 9.26367 10.4297 7.06055 12.041C6.67383 12.3223 6.36328 12.5859 6.36328 12.627C6.36914 12.668 7.33008 14.3555 8.50195 16.3828C9.66797 18.4102 10.7988 20.3672 11.0039 20.7246C11.209 21.0879 11.4082 21.3867 11.4375 21.3867C11.4727 21.3867 11.8184 21.2461 12.2109 21.0703C13.8574 20.332 15.4453 19.7812 17.1094 19.3711C18.2578 19.0898 19.5234 18.8379 20.1738 18.7734C20.3906 18.75 20.5664 18.7148 20.5664 18.6914C20.5664 18.6211 13.3008 6.06445 13.248 6.04688C13.2246 6.04102 13.043 6.23438 12.8496 6.48633Z" fill="white"/>
<path d="M25.746 11.1855C25.5175 11.3262 25.4062 11.5957 25.4472 11.9004C25.4999 12.3164 25.6113 12.375 27.1582 12.8906C27.9375 13.1484 28.6347 13.3594 28.705 13.3594C28.9336 13.3594 29.2265 13.1953 29.3203 13.0137C29.373 12.9199 29.414 12.7148 29.414 12.5684C29.414 12.1055 29.2968 12.0352 27.7031 11.5195C26.9472 11.2734 26.2382 11.0742 26.1269 11.0742C26.0156 11.0742 25.8457 11.127 25.746 11.1855Z" fill="white"/>
<path d="M3.63278 14.168C2.33786 14.918 2.08591 15.0879 1.69919 15.4688C0.884736 16.2715 0.550752 17.1563 0.597627 18.3809C0.638642 19.2891 0.720674 19.5 1.70505 21.2109C2.63083 22.8281 2.98825 23.2442 3.78513 23.6485C4.47067 24 4.89255 24.1055 5.65427 24.0996C6.59763 24.0938 6.92575 23.9707 8.70114 22.9453C9.50388 22.4824 10.1718 22.0723 10.1836 22.043C10.1953 21.9961 8.81833 19.582 5.5195 13.8691C5.33786 13.5586 5.1738 13.3008 5.15622 13.3008C5.13864 13.3066 4.4531 13.6934 3.63278 14.168Z" fill="white"/>
<path d="M10.4824 23.4551C9.79102 23.8535 9.11719 24.2402 8.98242 24.3223C8.8418 24.3984 8.73047 24.4746 8.73047 24.4922C8.73047 24.5098 9.55664 25.3477 10.5645 26.3496C12.5391 28.3184 12.6035 28.3652 13.1074 28.2773C13.2949 28.2422 13.459 28.1074 14.1035 27.4629C14.7363 26.8301 14.8828 26.6426 14.9414 26.4434C15.0762 25.9219 15.0234 25.8516 13.4004 24.2168C12.5918 23.4023 11.8887 22.7344 11.8359 22.7344C11.7832 22.7344 11.1738 23.0566 10.4824 23.4551Z" fill="white"/>
</g>
<defs>
<filter id="filter0_i_11_800" x="0" y="0" width="30" height="34" filterUnits="userSpaceOnUse" color-interpolation-filters="sRGB">
<feFlood flood-opacity="0" result="BackgroundImageFix"/>
<feBlend mode="normal" in="SourceGraphic" in2="BackgroundImageFix" result="shape"/>
<feColorMatrix in="SourceAlpha" type="matrix" values="0 0 0 0 0 0 0 0 0 0 0 0 0 0 0 0 0 0 127 0" result="hardAlpha"/>
<feOffset dy="4"/>
<feGaussianBlur stdDeviation="2"/>
<feComposite in2="hardAlpha" operator="arithmetic" k2="-1" k3="1"/>
<feColorMatrix type="matrix" values="0 0 0 0 0.192157 0 0 0 0 0.956863 0 0 0 0 0.956863 0 0 0 0.05 0"/>
<feBlend mode="normal" in2="shape" result="effect1_innerShadow_11_800"/>
</filter>
</defs>
</svg>
