<svg width="16" height="14" viewBox="0 0 16 14" fill="none" xmlns="http://www.w3.org/2000/svg">
<path d="M10.4191 8.01221C10.4191 9.34618 9.33397 10.4313 8 10.4313C6.66603 10.4313 5.58127 9.34618 5.58127 8.01221C5.58127 6.67824 6.66603 5.59307 8 5.59307C9.33397 5.59307 10.4191 6.67865 10.4191 8.01221ZM15.5 4.57714V11.4481C15.5 12.3641 14.7573 13.1067 13.8414 13.1067H2.15865C1.24266 13.1067 0.5 12.3641 0.5 11.4481V4.57714C0.5 3.66115 1.24266 2.91849 2.15865 2.91849H4.19879V2.3446C4.19879 1.54306 4.84815 0.89328 5.65011 0.89328H10.3499C11.1518 0.89328 11.8012 1.54306 11.8012 2.3446V2.91808H13.8414C14.7573 2.91849 15.5 3.66115 15.5 4.57714ZM11.6631 8.01221C11.6631 5.99238 10.0198 4.34908 8 4.34908C5.98059 4.34908 4.33729 5.99238 4.33729 8.01221C4.33729 10.032 5.98059 11.6753 8 11.6753C10.0198 11.6753 11.6631 10.032 11.6631 8.01221Z" fill="white"/>
</svg>
