<svg width="30" height="30" viewBox="0 0 30 30" fill="none" xmlns="http://www.w3.org/2000/svg">
<g filter="url(#filter0_i_11_835)">
<g clip-path="url(#clip0_11_835)" filter="url(#filter1_i_11_835)">
<path d="M13.9336 0.49219C8.12109 4.45313 0.240234 9.9375 0.128906 10.0898L0 10.2773V19.6934V29.1035L0.134766 29.3613C0.210938 29.502 0.386719 29.6953 0.521484 29.7949L0.773438 29.9707L2.26172 29.9883L3.75 30.0059L3.76172 22.3711C3.7793 15.0762 3.78516 14.7246 3.89062 14.5195C4.03125 14.2266 4.39453 13.9102 4.66992 13.834C4.98047 13.7461 25.0195 13.7461 25.3301 13.834C25.6055 13.9102 25.9688 14.2266 26.1094 14.5195C26.2148 14.7246 26.2207 15.0762 26.2383 22.3652L26.25 30H27.6797C29.0508 30 29.1094 29.9941 29.3613 29.8652C29.5195 29.7832 29.6953 29.6191 29.8066 29.4492L30 29.168V19.7344C30 10.459 30 10.2949 29.8828 10.1133C29.8066 9.97852 27.709 8.50781 22.9336 5.20899C19.1719 2.61914 15.9258 0.386721 15.7148 0.246096C15.375 0.0292993 15.293 2.38465e-06 14.9941 2.38465e-06C14.6602 2.38465e-06 14.6309 0.0117211 13.9336 0.49219Z" fill="white"/>
<path d="M11.5312 16.3242C11.4434 16.3711 11.3438 16.459 11.3086 16.5234C11.2734 16.5938 11.25 17.6191 11.25 19.3945V22.1602L11.4199 22.3301L11.5898 22.5H15H18.4102L18.5801 22.3301L18.75 22.1602V19.3945C18.75 17.6133 18.7266 16.5938 18.6914 16.5176C18.5566 16.2656 18.3574 16.2305 17.1094 16.2305H15.9375V16.6523C15.9316 17.25 15.8496 17.5723 15.6328 17.7949C15.2695 18.1758 14.8066 18.1875 14.4141 17.8359C14.1504 17.5957 14.0625 17.291 14.0625 16.6406V16.2305H12.8789C11.9414 16.2363 11.6543 16.2539 11.5312 16.3242Z" fill="white"/>
<path d="M7.05469 23.9297L6.85547 24.1289V26.8301C6.85547 29.7188 6.86133 29.7891 7.14258 29.9414C7.21875 29.9766 8.4375 30 10.6465 30H14.0391L14.2148 29.8184L14.3848 29.6426L14.4023 26.9648C14.4199 24.1172 14.4141 24.0645 14.1328 23.8477C13.998 23.7422 13.8926 23.7305 12.7676 23.7305H11.543V24.2754C11.543 24.9727 11.4082 25.2715 11.0156 25.4766C10.6875 25.6465 10.3887 25.623 10.1074 25.4004C9.78516 25.1602 9.72656 24.9844 9.72656 24.3164V23.7305H8.49023H7.25391L7.05469 23.9297Z" fill="white"/>
<path d="M15.8672 23.8477C15.586 24.0645 15.5801 24.1172 15.5977 26.9648L15.6153 29.6426L15.7852 29.8184L15.961 30H19.3535C21.5625 30 22.7813 29.9766 22.8574 29.9414C23.1387 29.7891 23.1445 29.7188 23.1445 26.8301V24.1289L22.9453 23.9297L22.7461 23.7305H21.5156H20.2852L20.2617 24.3691C20.2442 25.0547 20.1914 25.1953 19.8574 25.4473C19.459 25.7402 18.832 25.5586 18.5918 25.0781C18.4805 24.8672 18.457 24.7207 18.457 24.2754V23.7305H17.2324C16.1074 23.7305 16.002 23.7422 15.8672 23.8477Z" fill="white"/>
</g>
</g>
<defs>
<filter id="filter0_i_11_835" x="0" y="0" width="30" height="34" filterUnits="userSpaceOnUse" color-interpolation-filters="sRGB">
<feFlood flood-opacity="0" result="BackgroundImageFix"/>
<feBlend mode="normal" in="SourceGraphic" in2="BackgroundImageFix" result="shape"/>
<feColorMatrix in="SourceAlpha" type="matrix" values="0 0 0 0 0 0 0 0 0 0 0 0 0 0 0 0 0 0 127 0" result="hardAlpha"/>
<feOffset dy="4"/>
<feGaussianBlur stdDeviation="2"/>
<feComposite in2="hardAlpha" operator="arithmetic" k2="-1" k3="1"/>
<feColorMatrix type="matrix" values="0 0 0 0 1 0 0 0 0 0.756863 0 0 0 0 0.976471 0 0 0 0.1 0"/>
<feBlend mode="normal" in2="shape" result="effect1_innerShadow_11_835"/>
</filter>
<filter id="filter1_i_11_835" x="0" y="0" width="30" height="34" filterUnits="userSpaceOnUse" color-interpolation-filters="sRGB">
<feFlood flood-opacity="0" result="BackgroundImageFix"/>
<feBlend mode="normal" in="SourceGraphic" in2="BackgroundImageFix" result="shape"/>
<feColorMatrix in="SourceAlpha" type="matrix" values="0 0 0 0 0 0 0 0 0 0 0 0 0 0 0 0 0 0 127 0" result="hardAlpha"/>
<feOffset dy="4"/>
<feGaussianBlur stdDeviation="2"/>
<feComposite in2="hardAlpha" operator="arithmetic" k2="-1" k3="1"/>
<feColorMatrix type="matrix" values="0 0 0 0 1 0 0 0 0 0.756863 0 0 0 0 0.976471 0 0 0 0.05 0"/>
<feBlend mode="normal" in2="shape" result="effect1_innerShadow_11_835"/>
</filter>
<clipPath id="clip0_11_835">
<rect width="30" height="30" fill="white"/>
</clipPath>
</defs>
</svg>
