<svg width="30" height="30" viewBox="0 0 30 30" fill="none" xmlns="http://www.w3.org/2000/svg">
<path d="M4.05634 0.0887194C2.59437 0.578327 1.34366 1.67572 0.676056 3.06013C0.0676056 4.30948 0 4.67246 0 6.56336C0.0084507 7.94777 0.0338028 8.34452 0.194366 9.08738C2.12113 17.9172 12.0254 27.7938 20.9746 29.7944C22.0986 30.0477 24.7859 30.073 25.6479 29.8366C27.5155 29.3217 28.8845 28.1905 29.6873 26.5022C29.9831 25.8776 30 25.81 30 24.9659C30 24.1808 29.9746 24.0204 29.7803 23.6068C29.6535 23.3451 29.4085 22.9737 29.231 22.7711C29.0535 22.5769 27.769 21.623 26.3831 20.6523C23.6704 18.7614 23.2648 18.5503 22.3099 18.5503C21.4479 18.5503 20.3662 19.023 19.8338 19.6308C19.7239 19.7575 19.3859 20.2133 19.0901 20.6354C18.7859 21.0659 18.5239 21.4204 18.4986 21.4204C18.4394 21.4204 17.2817 20.5763 16.6056 20.036C14.3155 18.2042 11.5268 15.4016 9.75211 13.1477C9.36338 12.6497 8.57747 11.5523 8.57747 11.5101C8.57747 11.4932 9 11.1809 9.51549 10.8179C10.5887 10.0666 11.0197 9.54322 11.2817 8.69063C11.493 7.99842 11.493 7.39907 11.2817 6.70687C11.138 6.25947 10.7831 5.68545 9.34648 3.63416C8.37465 2.24975 7.41972 0.966637 7.22535 0.789365C6.6338 0.25755 6.04225 0.0296287 5.15493 0.00430418C4.68169 -0.0125789 4.26761 0.0211872 4.05634 0.0887194Z" fill="white"/>
</svg>
