<svg width="30" height="30" viewBox="0 0 30 30" fill="none" xmlns="http://www.w3.org/2000/svg">
<path d="M13.3858 0.0802191C8.3436 0.590589 3.7891 3.81042 1.5231 8.43377C-2.1385 15.9392 1.02789 24.9532 8.59871 28.5633C12.688 30.5073 17.4976 30.4772 21.5644 28.4808C26.2765 26.1616 29.3978 21.6659 29.9306 16.4346C30.1932 13.7926 29.7055 11.0156 28.5575 8.59889C25.7963 2.80469 19.7786 -0.572754 13.3858 0.0802191ZM15.8694 6.35476C17.28 7.07528 17.28 9.10926 15.8694 9.83728C14.969 10.3026 13.746 9.89733 13.2508 8.96665C13.0332 8.56136 13.0181 7.66071 13.2282 7.27043C13.4909 6.76756 13.9411 6.38478 14.4738 6.21216C14.7814 6.10708 15.5393 6.18964 15.8694 6.35476ZM15.9444 11.8938C16.057 11.9763 16.2221 12.1415 16.3046 12.254C16.4622 12.4567 16.4622 12.5543 16.4847 16.5772L16.4997 20.6977L17.7752 20.7202C18.9157 20.7427 19.0583 20.7577 19.2459 20.9003C19.6436 21.193 19.7636 21.4332 19.7636 21.906C19.7636 22.3789 19.6436 22.619 19.2459 22.9118C19.0433 23.0694 18.9608 23.0694 15.2991 23.0694C11.6375 23.0694 11.555 23.0694 11.3524 22.9118C10.9547 22.619 10.8347 22.3789 10.8347 21.906C10.8347 21.4332 10.9547 21.193 11.3524 20.9003C11.54 20.7577 11.6826 20.7427 12.8306 20.7202L14.0986 20.6977V17.3953V14.1004H13.3858C12.568 14.1004 12.2753 14.0103 11.9752 13.6576C11.615 13.2297 11.615 12.5693 11.9752 12.1415C12.3278 11.7287 12.4779 11.6986 14.1887 11.7211C15.6218 11.7362 15.7569 11.7512 15.9444 11.8938Z" fill="white"/>
</svg>
