<svg width="16" height="20" viewBox="0 0 16 20" fill="none" xmlns="http://www.w3.org/2000/svg">
<path fill-rule="evenodd" clip-rule="evenodd" d="M0.292896 15.6857C0.082896 15.4757 -0.022104 15.1837 0.00389602 14.8877L0.382896 10.7177C0.424896 10.2607 0.626896 9.8297 0.952896 9.5037L9.9489 0.507702C10.6509 -0.197298 11.9239 -0.162298 12.6649 0.576702L15.4029 3.3147L15.4039 3.3157C16.1689 4.0817 16.1999 5.2997 15.4719 6.0297L6.4749 15.0267C6.1499 15.3517 5.7189 15.5537 5.2609 15.5957L1.0909 15.9747C1.0609 15.9767 1.0309 15.9777 0.999896 15.9777C0.736896 15.9777 0.481896 15.8737 0.292896 15.6857ZM12.019 6.6567L9.324 3.9617L11.272 2.0127L13.966 4.7067L12.019 6.6567ZM5.08 13.6027L2.103 13.8737L2.367 10.9177L7.984 5.3007L10.68 7.9977L5.08 13.6027ZM15 19.9777C15.55 19.9777 16 19.5277 16 18.9777C16 18.4287 15.55 17.9777 15 17.9777H1C0.451 17.9777 0 18.4287 0 18.9777C0 19.5277 0.451 19.9777 1 19.9777H15Z" fill="#D41D26"/>
</svg>
