<svg width="30" height="30" viewBox="0 0 30 30" fill="none" xmlns="http://www.w3.org/2000/svg">
<path d="M13.8664 0.0931419C11.735 0.47493 9.85476 1.9418 9.01985 3.88423C8.56506 4.93583 8.53112 5.17696 8.49718 7.50787L8.47003 9.63785H5.65984C3.4334 9.63785 2.80213 9.65794 2.62564 9.73162C2.34055 9.84549 2.04867 10.1871 2.00115 10.4684C1.94685 10.7497 3.8271 26.4298 3.97644 26.9255C4.30225 28.0173 5.15753 29.0287 6.17572 29.5243C7.1939 30.02 6.84093 29.9999 15 29.9999C23.1591 29.9999 22.8061 30.02 23.8243 29.5243C24.8425 29.0287 25.6977 28.0173 26.0236 26.9255C26.1729 26.4298 28.0532 10.7497 27.9988 10.4684C27.9513 10.1871 27.6595 9.84549 27.3744 9.73162C27.1979 9.65794 26.5666 9.63785 24.3402 9.63785H21.53L21.5028 7.50787C21.4689 5.17696 21.4349 4.93583 20.9801 3.88423C20.3149 2.34368 18.842 0.963887 17.2604 0.394554C16.1811 0.0127654 14.9389 -0.101101 13.8664 0.0931419ZM15.9164 2.23651C17.5319 2.57142 18.8963 3.91772 19.2424 5.52525C19.3171 5.86685 19.3443 6.46968 19.3443 7.80928V9.63785H15H10.6557V7.80928C10.6557 5.6994 10.71 5.33101 11.1309 4.50715C12.0269 2.75896 13.9682 1.83463 15.9164 2.23651ZM9.99731 11.875C10.6965 12.163 10.8662 13.0605 10.3231 13.5964C9.88192 14.0318 9.25743 14.0318 8.81621 13.5964C7.97451 12.7725 8.90446 11.4195 9.99731 11.875ZM20.858 11.875C21.5571 12.163 21.7268 13.0605 21.1838 13.5964C20.4235 14.3533 19.1746 13.6768 19.3714 12.6185C19.4936 11.9889 20.2403 11.6138 20.858 11.875ZM19.8737 16.2689C20.1928 16.4632 20.3624 16.778 20.3624 17.1798C20.3624 17.5817 20.5254 17.3071 17.9867 21.2188C15.9096 24.407 15.8145 24.5276 15.224 24.6147C14.5927 24.7084 14.5113 24.6482 12.6514 22.8129C11.7079 21.8819 10.8797 21.0178 10.7983 20.8906C10.3163 20.0935 11.1445 19.0553 12.0405 19.35C12.1694 19.3902 12.8143 19.8122 13.4795 20.2877C14.1447 20.7566 14.7149 21.1317 14.7353 21.1183C14.7624 21.1049 15.6449 20.0198 16.697 18.7137C17.7491 17.4076 18.6858 16.289 18.7877 16.2354C19.0592 16.0948 19.609 16.1082 19.8737 16.2689Z" fill="white"/>
</svg>
