<svg width="30" height="40" viewBox="0 0 30 40" fill="none" xmlns="http://www.w3.org/2000/svg">
<g clip-path="url(#clip0_11_1116)">
<path d="M21.6146 22.3503H13.1152C12.5066 22.3276 11.9305 22.0699 11.5079 21.6313C11.0853 21.1927 10.8492 20.6074 10.8492 19.9984C10.8492 19.3893 11.0853 18.804 11.5079 18.3654C11.9305 17.9268 12.5066 17.6691 13.1152 17.6465H21.6146L18.8542 14.5671C18.4422 14.1043 18.2287 13.4982 18.2598 12.8794C18.2908 12.2606 18.5639 11.6789 19.0202 11.2598C19.2446 11.0534 19.5078 10.8938 19.7944 10.7901C20.0811 10.6865 20.3855 10.6409 20.69 10.6561C20.9945 10.6712 21.2929 10.7468 21.5679 10.8784C21.8428 11.0099 22.0889 11.1949 22.2917 11.4225L28.5482 18.4049C28.9414 18.8369 29.1609 19.3991 29.1645 19.9832C29.1681 20.5674 28.9555 21.1322 28.5677 21.569L22.2917 28.571C22.0893 28.7992 21.8436 28.9848 21.5687 29.1169C21.2938 29.249 20.9954 29.325 20.6908 29.3405C20.3862 29.3559 20.0816 29.3105 19.7947 29.2069C19.5079 29.1033 19.2446 28.9435 19.0202 28.737C18.5639 28.3178 18.2908 27.7361 18.2598 27.1173C18.2287 26.4986 18.4422 25.8924 18.8542 25.4297L21.6146 22.3503ZM13.9779 35.3418C14.2807 35.4023 14.5687 35.5218 14.8254 35.6936C15.0821 35.8654 15.3024 36.0861 15.4738 36.343C15.6452 36.5999 15.7643 36.8881 15.8243 37.1911C15.8843 37.494 15.8841 37.8059 15.8236 38.1087C15.7631 38.4116 15.6435 38.6996 15.4717 38.9562C15.3 39.2129 15.0793 39.4332 14.8224 39.6046C14.5654 39.776 14.2773 39.8951 13.9743 39.9551C13.6713 40.0152 13.3595 40.0149 13.0566 39.9544L11.9596 39.7331C4.17969 38.1901 0 37.3144 0 26.1068V13.2259C0 2.49023 4.48568 1.65039 11.9141 0.263667L13.0762 0.0423126C13.6878 -0.0746693 14.3209 0.0561262 14.8362 0.405926C15.3514 0.755725 15.7066 1.29587 15.8236 1.90755C15.9405 2.51922 15.8098 3.15231 15.46 3.66755C15.1102 4.18278 14.57 4.53796 13.9583 4.65494L12.7767 4.88281C7.74414 5.82356 4.70378 6.38997 4.70378 13.2324V26.1068C4.70378 33.4668 7.55859 34.069 12.8743 35.1237L13.9779 35.3418Z" fill="white"/>
</g>
<defs>
<clipPath id="clip0_11_1116">
<rect width="29.1667" height="40" fill="white"/>
</clipPath>
</defs>
</svg>
