<svg width="41" height="40" viewBox="0 0 41 40" fill="none" xmlns="http://www.w3.org/2000/svg">
<g clip-path="url(#clip0_11_1113)">
<path d="M8.56049 25.0415L6.67786 29.4487C6.63392 29.5523 6.56109 29.641 6.46807 29.7043C6.37505 29.7676 6.26578 29.8027 6.15331 29.8056L1.41718 30.2311L5.02756 33.3832C5.19523 33.5301 5.2591 33.7521 5.21279 33.9557L4.14612 38.6279L8.2587 36.1689C8.45032 36.0539 8.68185 36.0619 8.86069 36.1689L12.9749 38.6279L12.5062 36.5792C12.8958 36.6231 13.2974 36.5944 13.6878 36.4874L14.2212 38.8275C14.2363 38.9289 14.2363 39.0335 14.2196 39.1381C14.1991 39.2641 14.1553 39.3852 14.0902 39.495C13.9538 39.723 13.7324 39.8876 13.4747 39.9525C13.228 40.0148 12.9557 39.982 12.717 39.8399L8.5597 37.3545L4.43834 39.82C4.34892 39.8782 4.24832 39.9229 4.14053 39.9501L4.06548 39.9685C3.95051 39.9892 3.82676 39.9892 3.70221 39.9653L3.66229 39.9581C3.39562 39.8958 3.17766 39.7313 3.04113 39.5142C2.90309 39.2947 2.85531 39.0303 2.9078 38.7764L3.99123 34.0347L0.344127 30.8499C0.248319 30.7661 0.166882 30.6623 0.109397 30.5481C0.0556917 30.4432 0.0208305 30.3297 0.00640282 30.2128L0.0024108 30.1609C-0.0151541 29.8966 0.0750655 29.6459 0.237141 29.4527C0.39762 29.2611 0.628359 29.1293 0.891832 29.0998L5.73574 28.6679L7.63435 24.22C7.68476 24.1 7.75797 23.991 7.84992 23.899C7.92497 23.8223 8.01439 23.7577 8.11419 23.7074C8.15012 23.6882 8.18684 23.6722 8.22596 23.6603C8.46229 23.5756 8.71459 23.5876 8.93335 23.6754C9.15291 23.7641 9.34213 23.9301 9.4555 24.1553L10.9581 27.6691L10.5214 29.5796C10.4894 29.5397 10.4639 29.4958 10.4439 29.4487L8.56049 25.0415ZM3.26868 12.1345C2.81359 11.9429 2.59962 11.4192 2.79123 10.9641C2.98285 10.509 3.5074 10.295 3.96249 10.4866L7.69343 12.0675C8.14852 12.2591 8.36249 12.7836 8.17087 13.2379C7.97926 13.693 7.45471 13.907 6.99962 13.7154L3.26868 12.1345ZM7.06269 6.31895C6.71459 5.96845 6.71618 5.40159 7.06668 5.05348C7.41718 4.70538 7.98405 4.70698 8.33215 5.05748L11.1824 7.93811C11.5306 8.28861 11.529 8.85548 11.1785 9.20358C10.828 9.55169 10.2611 9.55009 9.91299 9.19959L7.06269 6.31895ZM12.7832 2.37963C12.5956 1.92294 12.8136 1.39999 13.2703 1.21237C13.7278 1.02474 14.2499 1.2427 14.4383 1.69939L15.9793 5.44789C16.1669 5.90458 15.9481 6.42754 15.4914 6.61516C15.0347 6.80278 14.5118 6.58482 14.3242 6.12813L12.7832 2.37963ZM36.9158 10.4866C37.3709 10.295 37.8954 10.509 38.087 10.9641C38.2787 11.4192 38.0647 11.9429 37.6096 12.1345L33.8787 13.7154C33.4236 13.907 32.899 13.693 32.7074 13.2379C32.5158 12.7836 32.7298 12.2591 33.1848 12.0675L36.9158 10.4866ZM32.5461 5.05748C32.8942 4.70698 33.4611 4.70538 33.8116 5.05348C34.1621 5.40159 34.1637 5.96845 33.8156 6.31895L30.9653 9.19959C30.6172 9.55009 30.0503 9.55169 29.6998 9.20358C29.3493 8.85548 29.3477 8.28861 29.6958 7.93811L32.5461 5.05748ZM26.4399 1.69939C26.6284 1.2427 27.1505 1.02474 27.608 1.21237C28.0647 1.39999 28.2826 1.92294 28.095 2.37963L26.5541 6.12813C26.3665 6.58482 25.8435 6.80278 25.3868 6.61516C24.9302 6.42754 24.7114 5.90458 24.899 5.44789L26.4399 1.69939ZM19.5138 0.913763C19.5138 0.418753 19.9154 0.0163574 20.4112 0.0163574C20.9062 0.0163574 21.3086 0.418753 21.3086 0.913763V4.96646C21.3086 5.46147 20.9062 5.86386 20.4112 5.86386C19.9154 5.86386 19.5138 5.46147 19.5138 4.96646V0.913763ZM21.4523 10.8451L24.3234 17.5669L31.6335 18.2215C31.9282 18.2511 32.1836 18.3956 32.3609 18.6064L32.3904 18.6455C32.5477 18.8507 32.6339 19.111 32.614 19.3848L32.6108 19.4255C32.5964 19.5613 32.5565 19.6882 32.4982 19.8032L32.4814 19.8335C32.4288 19.9285 32.3617 20.0164 32.2842 20.0914L26.7226 24.9505L28.3609 32.1217C28.4192 32.4068 28.3601 32.6902 28.2148 32.921C27.8906 33.4399 27.1984 33.586 26.6914 33.2547L20.4391 29.5158L14.1349 33.2842C13.8896 33.4269 13.5983 33.4682 13.323 33.3992C12.7425 33.2531 12.3936 32.6718 12.5238 32.0954L14.1557 24.9505L8.63554 20.1297C8.52738 20.0352 8.43892 19.9202 8.37521 19.7914C8.31151 19.6627 8.27382 19.5226 8.26429 19.3792C8.24592 19.103 8.33375 18.8164 8.53255 18.5896C8.63235 18.4762 8.74972 18.3876 8.87586 18.3261C9.006 18.2623 9.14972 18.2255 9.29502 18.2176L16.5549 17.5669L19.4331 10.8267C19.5513 10.5497 19.7725 10.3445 20.0319 10.2407C20.5924 10.0148 21.2192 10.2878 21.4483 10.8347L21.4523 10.8451ZM33.2487 24.2319L35.1425 28.6679L39.9864 29.0998C40.2499 29.1293 40.4807 29.2619 40.6411 29.4527C40.8032 29.6459 40.8934 29.8966 40.8759 30.1609L40.8719 30.2128C40.8574 30.3297 40.8226 30.4432 40.7689 30.5481C40.7114 30.6623 40.6308 30.7653 40.5341 30.8499L36.887 34.0347L37.9705 38.7764C38.0248 39.0391 37.9705 39.3018 37.8371 39.5142C37.7014 39.7305 37.4827 39.8958 37.216 39.9581L37.1761 39.9653C37.0515 39.9892 36.9286 39.9892 36.8128 39.9685L36.7377 39.9501C36.63 39.9229 36.5294 39.879 36.4399 39.82L32.3178 37.3545L28.1613 39.8399C28.0486 39.9076 27.9237 39.9524 27.7937 39.9717C27.6637 39.991 27.5311 39.9845 27.4036 39.9525C27.1561 39.8902 26.9302 39.7321 26.788 39.495C26.721 39.3824 26.6779 39.2611 26.6579 39.1397L26.6571 39.1333C26.6403 39.0335 26.6411 38.9305 26.6571 38.8291L27.1912 36.485C27.2783 36.509 27.3677 36.5289 27.4571 36.5449C27.7565 36.5992 28.0655 36.612 28.3721 36.5776L27.9034 38.6279L32.0168 36.1689C32.1964 36.0619 32.4272 36.0539 32.6188 36.1689L36.7322 38.6279L35.6647 33.9557C35.6192 33.7521 35.683 33.5301 35.8507 33.3832L39.4611 30.2311L34.725 29.8056C34.6125 29.8027 34.5032 29.7676 34.4102 29.7043C34.3172 29.641 34.2444 29.5523 34.2004 29.4487L32.3178 25.0415L30.4359 29.4487C30.4152 29.4974 30.3872 29.5429 30.3545 29.5836L29.9186 27.6746L31.4228 24.1553C31.5361 23.9301 31.7254 23.7641 31.9449 23.6754C32.1645 23.5876 32.4168 23.5756 32.6531 23.6603C32.6922 23.673 32.7298 23.689 32.7649 23.7082C32.8655 23.7585 32.9533 23.8231 33.0284 23.899C33.121 23.9924 33.1944 24.1026 33.2439 24.22L33.2487 24.2319Z" fill="white"/>
</g>
<defs>
<clipPath id="clip0_11_1113">
<rect width="40.8782" height="40" fill="white"/>
</clipPath>
</defs>
</svg>
