<svg width="30" height="30" viewBox="0 0 30 30" fill="none" xmlns="http://www.w3.org/2000/svg">
<g filter="url(#filter0_i_11_785)">
<path d="M14.1504 0.0351596C13.1895 0.175785 12.1817 0.662113 11.1504 1.48828C9.38087 2.91211 8.51369 4.82227 8.73048 6.8086C8.78908 7.3418 8.90041 7.94532 8.99416 8.29102C9.02345 8.39063 8.9883 8.42579 8.77736 8.4961C8.41994 8.61914 8.29689 8.89454 8.30275 9.52149C8.30861 10.002 8.39064 10.4004 8.65431 11.2207C8.9297 12.0703 9.24025 12.6035 9.52736 12.7148C9.61525 12.75 9.66212 12.8379 9.69142 13.0078C9.79103 13.6289 10.1953 14.5664 10.6641 15.2637C11.6895 16.7813 13.1895 17.7129 14.7422 17.7949C15.4453 17.8359 15.961 17.7539 16.5938 17.5137C18.2344 16.8809 19.7403 15.1289 20.2324 13.2832C20.3438 12.8438 20.3906 12.7617 20.5606 12.6445C21.0645 12.3047 21.6797 10.5469 21.6797 9.45118C21.6797 8.85938 21.5625 8.61914 21.2168 8.4961C21.0176 8.42579 20.9766 8.38477 20.9942 8.29102C21.2285 7.30664 21.3574 6.01758 21.3047 5.17383C21.2344 4.09571 20.9649 3.30469 20.4727 2.75977C20.2266 2.49024 19.7168 2.16797 19.5176 2.16797C19.4649 2.16211 19.3242 2.02149 19.2012 1.83985C18.8965 1.40625 18.3106 0.937503 17.6367 0.585941C16.7637 0.140628 16.3711 0.0468784 15.2637 0.0293002C14.7481 0.0175815 14.25 0.0234409 14.1504 0.0351596Z" fill="white"/>
<path d="M10.0195 17.3086C8.76562 18.1406 6.86719 19.002 5.15625 19.5176C4.72266 19.6465 4.21289 19.834 4.02539 19.9336C3.31641 20.3145 2.83594 20.9707 2.53711 21.9727C2.37891 22.5117 2.37305 22.5703 2.37305 23.8477C2.37891 25.0254 2.49609 26.5781 2.61328 26.9648C2.6543 27.0996 4.29492 27.9082 5.30273 28.2891C7.40625 29.0918 9.28125 29.543 11.8945 29.8652C13.125 30.0176 16.875 30.0176 18.1348 29.8652C21.3984 29.4668 24.293 28.6406 26.6309 27.4336L27.3926 27.041L27.4336 26.7187C27.8262 23.5957 27.6914 21.9023 26.959 20.8418C26.5078 20.1797 26.0156 19.8691 24.9023 19.5352C23.1211 19.002 21.3809 18.2168 19.9629 17.3086C19.7461 17.168 19.541 17.0508 19.5176 17.0508C19.4531 17.0508 19.4707 17.0039 18.041 21.5039C17.4258 23.4551 16.8926 25.1367 16.8574 25.2422C16.8223 25.3418 16.7812 25.4297 16.7637 25.4297C16.7461 25.4297 16.5059 24.7969 16.2363 24.0234L15.7441 22.6172L15.9551 22.3008C16.5059 21.4687 16.793 20.6895 16.7402 20.1387C16.7051 19.7578 16.6113 19.5879 16.2832 19.3242C15.832 18.9609 14.6777 18.8789 14.0156 19.1602C13.0312 19.5879 13.002 20.5605 13.9277 22.1016L14.25 22.6348L13.7578 24.0293C13.4941 24.8027 13.2539 25.4297 13.2363 25.4297C13.2188 25.4297 13.1777 25.3418 13.1426 25.2363C13.1074 25.1367 12.5625 23.4141 11.9297 21.416C10.4531 16.7695 10.5469 17.0508 10.4707 17.0566C10.4297 17.0566 10.2305 17.1738 10.0195 17.3086Z" fill="white"/>
</g>
<defs>
<filter id="filter0_i_11_785" x="0" y="0" width="30" height="34" filterUnits="userSpaceOnUse" color-interpolation-filters="sRGB">
<feFlood flood-opacity="0" result="BackgroundImageFix"/>
<feBlend mode="normal" in="SourceGraphic" in2="BackgroundImageFix" result="shape"/>
<feColorMatrix in="SourceAlpha" type="matrix" values="0 0 0 0 0 0 0 0 0 0 0 0 0 0 0 0 0 0 127 0" result="hardAlpha"/>
<feOffset dy="4"/>
<feGaussianBlur stdDeviation="2"/>
<feComposite in2="hardAlpha" operator="arithmetic" k2="-1" k3="1"/>
<feColorMatrix type="matrix" values="0 0 0 0 0.419608 0 0 0 0 0.768627 0 0 0 0 1 0 0 0 0.05 0"/>
<feBlend mode="normal" in2="shape" result="effect1_innerShadow_11_785"/>
</filter>
</defs>
</svg>
