<svg width="40" height="40" viewBox="0 0 40 40" fill="none" xmlns="http://www.w3.org/2000/svg">
<path d="M18.8672 0.0468693C17.586 0.234369 16.2422 0.882807 14.8672 1.98437C12.5078 3.88281 11.3516 6.42968 11.6406 9.07812C11.7188 9.78906 11.8672 10.5937 11.9922 11.0547C12.0313 11.1875 11.9844 11.2344 11.7031 11.3281C11.2266 11.4922 11.0625 11.8594 11.0703 12.6953C11.0781 13.3359 11.1875 13.8672 11.5391 14.9609C11.9063 16.0937 12.3203 16.8047 12.7031 16.9531C12.8203 17 12.8828 17.1172 12.9219 17.3437C13.0547 18.1719 13.5938 19.4219 14.2188 20.3516C15.586 22.375 17.586 23.6172 19.6563 23.7266C20.5938 23.7812 21.2813 23.6719 22.125 23.3516C24.3125 22.5078 26.3203 20.1719 26.9766 17.7109C27.125 17.125 27.1875 17.0156 27.4141 16.8594C28.086 16.4062 28.9063 14.0625 28.9063 12.6016C28.9063 11.8125 28.75 11.4922 28.2891 11.3281C28.0235 11.2344 27.9688 11.1797 27.9922 11.0547C28.3047 9.74218 28.4766 8.02343 28.4063 6.89843C28.3125 5.46093 27.9531 4.40624 27.2969 3.67968C26.9688 3.32031 26.2891 2.89062 26.0235 2.89062C25.9531 2.88281 25.7656 2.69531 25.6016 2.45312C25.1953 1.87499 24.4141 1.24999 23.5156 0.781244C22.3516 0.187494 21.8281 0.0624943 20.3516 0.0390568C19.6641 0.0234318 19 0.0312443 18.8672 0.0468693Z" fill="white"/>
<path d="M13.3594 23.0781C11.6875 24.1875 9.15625 25.3359 6.875 26.0234C6.29688 26.1953 5.61719 26.4453 5.36719 26.5781C4.42188 27.0859 3.78125 27.9609 3.38281 29.2969C3.17188 30.0156 3.16406 30.0937 3.16406 31.7969C3.17188 33.3672 3.32812 35.4375 3.48438 35.9531C3.53906 36.1328 5.72656 37.2109 7.07031 37.7187C9.875 38.7891 12.375 39.3906 15.8594 39.8203C17.5 40.0234 22.5 40.0234 24.1797 39.8203C28.5312 39.2891 32.3906 38.1875 35.5078 36.5781L36.5234 36.0547L36.5781 35.625C37.1016 31.4609 36.9219 29.2031 35.9453 27.7891C35.3438 26.9062 34.6875 26.4922 33.2031 26.0469C30.8281 25.3359 28.5078 24.2891 26.6172 23.0781C26.3281 22.8906 26.0547 22.7344 26.0234 22.7344C25.9375 22.7344 25.9609 22.6719 24.0547 28.6719C23.2344 31.2734 22.5234 33.5156 22.4766 33.6562C22.4297 33.7891 22.375 33.9062 22.3516 33.9062C22.3281 33.9062 22.0078 33.0625 21.6484 32.0312L20.9922 30.1562L21.2734 29.7344C22.0078 28.625 22.3906 27.5859 22.3203 26.8516C22.2734 26.3437 22.1484 26.1172 21.7109 25.7656C21.1094 25.2812 19.5703 25.1719 18.6875 25.5469C17.375 26.1172 17.3359 27.4141 18.5703 29.4687L19 30.1797L18.3438 32.0391C17.9922 33.0703 17.6719 33.9062 17.6484 33.9062C17.625 33.9062 17.5703 33.7891 17.5234 33.6484C17.4766 33.5156 16.75 31.2187 15.9062 28.5547C13.9375 22.3594 14.0625 22.7344 13.9609 22.7422C13.9062 22.7422 13.6406 22.8984 13.3594 23.0781Z" fill="white"/>
</svg>
