<svg width="30" height="30" viewBox="0 0 30 30" fill="none" xmlns="http://www.w3.org/2000/svg">
<g filter="url(#filter0_i_11_815)">
<path d="M11.4493 0.117188C9.40435 0.650391 7.90434 2.50781 7.88677 4.52344C7.88091 5.13867 7.93364 5.27344 8.2852 5.53125C8.44341 5.6543 8.4727 5.6543 15.0001 5.6543C21.5274 5.6543 21.5567 5.6543 21.7149 5.53125C22.0665 5.27344 22.1192 5.13867 22.1133 4.52344C22.0958 2.46094 20.4786 0.521484 18.4044 0.0820312C18.0997 0.0175781 17.3672 0 14.9415 0.00585938C12.1407 0.00585938 11.8301 0.0175781 11.4493 0.117188Z" fill="white"/>
<path d="M4.83398 1.77539C4.13672 2.0332 3.65625 2.47851 3.32227 3.16406L3.13477 3.54492V15.8203V28.0957L3.32227 28.4824C3.66211 29.1797 4.18945 29.6426 4.89844 29.8828C5.23828 30 5.39648 30 15.1172 29.9883L24.9902 29.9707L25.4004 29.7715C25.9395 29.5078 26.4023 29.0449 26.666 28.5059L26.8652 28.0957V15.8203V3.54492L26.6777 3.1582C26.3379 2.46679 25.8223 2.0039 25.1074 1.75781C24.8262 1.66406 24.6152 1.64062 23.9238 1.64062C23.4668 1.64062 23.0859 1.65234 23.0859 1.66406C23.0859 1.67578 23.1621 1.86328 23.2617 2.07422C23.6074 2.85351 23.8477 3.90234 23.8477 4.6582C23.8477 5.63086 23.3496 6.51562 22.541 6.99609C21.8672 7.39453 22.0957 7.38281 15 7.38281C7.9043 7.38281 8.13281 7.39453 7.45898 6.99609C6.65039 6.51562 6.15234 5.63086 6.15234 4.6582C6.15234 3.90234 6.39258 2.85351 6.73828 2.07422C6.83789 1.86328 6.91406 1.67578 6.91406 1.66406C6.91406 1.65234 6.52734 1.64062 6.05273 1.64648C5.30273 1.64648 5.13867 1.66406 4.83398 1.77539ZM20.6426 10.8691C20.748 10.916 20.8945 11.0566 20.9766 11.1738C21.123 11.3848 21.123 11.3965 21.123 12.709C21.123 13.9277 21.1113 14.0508 21.0059 14.2324C20.8242 14.543 20.6016 14.6777 20.2734 14.6777C19.834 14.6777 19.5293 14.3848 19.4238 13.8633C19.3887 13.6992 19.3477 13.7344 17.9121 15.1582C16.7754 16.2949 16.3945 16.6348 16.248 16.6699C15.8203 16.7578 15.75 16.7051 14.2266 15.1875L12.7734 13.7461L11.3848 15.1289C9.87891 16.6289 9.80859 16.6758 9.35742 16.5293C8.90625 16.377 8.64844 15.7969 8.85352 15.3926C8.94727 15.2109 12.2402 11.9062 12.4336 11.8008C12.6211 11.7012 12.9082 11.6953 13.084 11.7832C13.1543 11.8184 13.8516 12.4863 14.6309 13.2598L16.0547 14.6777L17.1094 13.623C17.6895 13.043 18.1641 12.5508 18.1641 12.5332C18.1641 12.5098 18.0645 12.4805 17.9414 12.457C17.5078 12.3926 17.2266 12.041 17.2266 11.584C17.2266 11.291 17.3672 11.0742 17.6602 10.8926C17.8242 10.793 17.9707 10.7812 19.1484 10.7812C20.1973 10.7812 20.4961 10.7988 20.6426 10.8691ZM11.707 18.5742C12.0879 18.8086 12.2285 19.2539 12.041 19.6523C11.9883 19.7578 11.4727 20.3203 10.8809 20.9004C10.0488 21.7266 9.76758 21.9727 9.59766 22.0195C9.20508 22.125 8.99414 22.0195 8.36133 21.3926C7.71094 20.7598 7.61719 20.6191 7.61719 20.2617C7.61719 19.7871 7.95703 19.4531 8.4375 19.4531C8.73047 19.4531 8.86523 19.5176 9.1582 19.793L9.375 20.0039L10.0957 19.2949C10.4883 18.9023 10.875 18.5508 10.957 18.5215C11.1973 18.4277 11.502 18.4512 11.707 18.5742ZM21.8555 19.5C22.3184 19.7285 22.4824 20.3672 22.1719 20.7422C21.8613 21.1113 22.043 21.0937 17.959 21.0937C13.875 21.0937 14.0566 21.1113 13.7461 20.7422C13.4355 20.3672 13.5996 19.7285 14.0625 19.5C14.25 19.4004 14.5605 19.3945 17.959 19.3945C21.3574 19.3945 21.668 19.4004 21.8555 19.5ZM11.625 23.5781C11.8652 23.6777 12.0586 23.918 12.1055 24.1816C12.1875 24.6035 12.082 24.75 10.8867 25.9336C9.63867 27.1699 9.54492 27.2285 9.09961 27.041C8.85938 26.9414 7.83984 25.9687 7.69922 25.7109C7.49414 25.3242 7.66992 24.7676 8.05078 24.5859C8.43164 24.4043 8.75977 24.4746 9.14062 24.8203L9.38086 25.0371L10.0664 24.3633C10.957 23.4844 11.1562 23.3789 11.625 23.5781ZM21.8379 24.5508C22.4648 24.832 22.4941 25.752 21.8906 26.0391C21.7148 26.1211 21.2637 26.1328 17.959 26.1328C14.6543 26.1328 14.2031 26.1211 14.0273 26.0391C13.4238 25.752 13.4531 24.832 14.0801 24.5508C14.3145 24.4395 14.502 24.4336 17.959 24.4336C21.416 24.4336 21.6035 24.4395 21.8379 24.5508Z" fill="white"/>
</g>
<defs>
<filter id="filter0_i_11_815" x="0" y="0" width="30" height="34" filterUnits="userSpaceOnUse" color-interpolation-filters="sRGB">
<feFlood flood-opacity="0" result="BackgroundImageFix"/>
<feBlend mode="normal" in="SourceGraphic" in2="BackgroundImageFix" result="shape"/>
<feColorMatrix in="SourceAlpha" type="matrix" values="0 0 0 0 0 0 0 0 0 0 0 0 0 0 0 0 0 0 127 0" result="hardAlpha"/>
<feOffset dy="4"/>
<feGaussianBlur stdDeviation="2"/>
<feComposite in2="hardAlpha" operator="arithmetic" k2="-1" k3="1"/>
<feColorMatrix type="matrix" values="0 0 0 0 1 0 0 0 0 0.584314 0 0 0 0 0.584314 0 0 0 0.05 0"/>
<feBlend mode="normal" in2="shape" result="effect1_innerShadow_11_815"/>
</filter>
</defs>
</svg>
