<svg width="29" height="30" viewBox="0 0 29 30" fill="none" xmlns="http://www.w3.org/2000/svg">
<g clip-path="url(#clip0_11_1121)">
<path fill-rule="evenodd" clip-rule="evenodd" d="M28.3911 17.0312C28.7426 24.0893 26.1352 28.2617 21.5136 30C17.0507 28.3691 14.4043 24.3823 14.6093 16.9238C17.0857 17.1081 19.5405 16.3523 21.4843 14.8071C23.4643 16.062 25.9887 17.2485 28.3886 17.0312H28.3911ZM15.3466 2.95896L20.4003 7.69285H15.3466V2.95896ZM4.77047 13.8598C4.82351 13.8016 4.88793 13.7549 4.95973 13.7226C5.03154 13.6903 5.10921 13.673 5.18795 13.6719H15.4052C15.4862 13.6721 15.5663 13.6897 15.64 13.7233C15.7136 13.757 15.7793 13.8061 15.8325 13.8672C15.9413 13.9948 16.0011 14.1571 16.0011 14.3249C16.0011 14.4927 15.9413 14.655 15.8325 14.7827C15.7958 14.8214 15.7549 14.8558 15.7104 14.8852C15.5151 14.9219 15.3198 14.9511 15.1245 14.978H5.19771C5.1166 14.9776 5.03645 14.9603 4.96245 14.9271C4.88845 14.8938 4.82222 14.8455 4.76802 14.7851C4.65691 14.6576 4.59571 14.4941 4.59571 14.3249C4.59571 14.1558 4.65691 13.9923 4.76802 13.8647L4.77047 13.8598ZM4.77047 17.9443C4.82374 17.8831 4.88934 17.8339 4.96297 17.7998C5.03659 17.7657 5.11659 17.7476 5.19771 17.7466H12.3095C12.3315 18.1933 12.3608 18.6303 12.3999 19.0576H5.19771C5.11655 19.0575 5.03631 19.0403 4.96226 19.0071C4.88821 18.9738 4.82202 18.9253 4.76802 18.8647C4.65691 18.7372 4.59571 18.5737 4.59571 18.4045C4.59571 18.2353 4.65691 18.0719 4.76802 17.9443H4.77047ZM4.77047 22.0263C4.82416 21.9658 4.8899 21.9172 4.96347 21.8836C5.03704 21.85 5.11682 21.8321 5.19771 21.831H12.8027C12.8955 22.2819 13.0004 22.7189 13.1176 23.1421H5.19771C5.11628 23.1422 5.03578 23.1248 4.96166 23.0911C4.88753 23.0574 4.82149 23.0082 4.76802 22.9468C4.65636 22.8191 4.59554 22.6549 4.59713 22.4853C4.5977 22.3164 4.65926 22.1535 4.77047 22.0263ZM4.77047 9.77537C4.82374 9.71418 4.88934 9.66494 4.96297 9.63086C5.03659 9.59678 5.11659 9.57864 5.19771 9.57761H11.0571C11.1375 9.57775 11.217 9.59502 11.2903 9.62828C11.3635 9.66154 11.4288 9.71001 11.4819 9.77048C11.5941 9.89874 11.655 10.0639 11.6528 10.2344C11.6529 10.4029 11.5922 10.5659 11.4819 10.6933C11.4285 10.7535 11.3631 10.802 11.29 10.8356C11.2169 10.8692 11.1376 10.8873 11.0571 10.8886H5.19771C5.1166 10.8883 5.03645 10.8709 4.96245 10.8377C4.88845 10.8045 4.82222 10.7561 4.76802 10.6958C4.6564 10.5672 4.59562 10.4022 4.59713 10.2319C4.595 10.0603 4.65679 9.89412 4.77047 9.7656V9.77537ZM4.77047 5.97654C4.82374 5.91536 4.88934 5.86611 4.96297 5.83203C5.03659 5.79796 5.11659 5.77981 5.19771 5.77879H8.42037C8.50016 5.77927 8.57897 5.79646 8.65172 5.82926C8.72447 5.86206 8.78953 5.90974 8.84273 5.96922C8.95384 6.09679 9.01505 6.26025 9.01505 6.42942C9.01505 6.59859 8.95384 6.76206 8.84273 6.88963C8.78951 6.95006 8.7242 6.99867 8.65103 7.03231C8.57786 7.06595 8.49845 7.08388 8.41793 7.08494H5.19771C5.11655 7.08487 5.03631 7.06765 4.96226 7.03441C4.88821 7.00118 4.82202 6.95267 4.76802 6.89207C4.65691 6.7645 4.59571 6.60104 4.59571 6.43186C4.59571 6.26269 4.65691 6.09923 4.76802 5.97166L4.77047 5.97654ZM23.2128 8.37156C23.2117 8.18932 23.1513 8.0124 23.0407 7.8675C22.9302 7.72261 22.7755 7.6176 22.6001 7.56834L15.1538 0.310036C15.0758 0.212801 14.977 0.134417 14.8645 0.0807294C14.7521 0.0270422 14.629 -0.000561562 14.5044 -2.27796e-05H1.51363C1.11218 -2.27796e-05 0.727171 0.159453 0.443302 0.443321C0.159434 0.72719 -4.19801e-05 1.1122 -4.19801e-05 1.51365V27.4072C-0.00104731 27.6064 0.0377375 27.8039 0.114038 27.9879C0.190338 28.1719 0.302619 28.3389 0.444294 28.479C0.728458 28.7616 1.11284 28.9205 1.51363 28.9209H16.0937C15.6343 28.393 15.2194 27.8279 14.8535 27.2314H1.68941V1.68211H13.6523V8.5449C13.6529 8.76981 13.7427 8.98528 13.902 9.14409C14.0613 9.30289 14.277 9.39207 14.5019 9.39207H21.5234V12.2778C22.0947 12.6391 22.6578 12.9687 23.2128 13.2666V8.37156ZM17.7587 21.709L19.0795 21.6919C19.4311 21.7505 20.1538 22.395 20.4077 22.6684C20.625 22.3218 20.8496 21.9897 21.0815 21.6675C21.3387 21.3094 21.6023 20.9676 21.8725 20.6421C22.1655 20.2856 22.4707 19.9463 22.7832 19.6216C23.0542 19.3384 23.5424 18.7671 23.8964 18.6303C23.9069 18.6278 23.9178 18.6278 23.9282 18.6303H25.3735C25.3962 18.6303 25.4179 18.6394 25.4339 18.6554C25.4499 18.6714 25.4589 18.6931 25.4589 18.7158C25.4591 18.7273 25.4568 18.7387 25.4521 18.7492C25.4475 18.7598 25.4407 18.7692 25.4321 18.7768L25.1464 19.0869C24.7005 19.5752 24.2757 20.0773 23.872 20.5932C23.4643 21.1084 23.0761 21.6333 22.7099 22.1631C22.3437 22.6928 21.9995 23.2251 21.6723 23.7695C21.3452 24.3139 21.0327 24.8755 20.7421 25.4394L20.559 25.791C20.5482 25.8106 20.5303 25.8252 20.5089 25.832C20.4876 25.8389 20.4645 25.8373 20.4443 25.8276C20.4278 25.8175 20.4143 25.8032 20.4052 25.7861L20.2392 25.4297C20.0907 25.1057 19.9227 24.791 19.7363 24.4873C19.5552 24.1903 19.3546 23.9056 19.1357 23.6352C18.9177 23.3659 18.6811 23.1122 18.4277 22.876C18.1687 22.6358 17.892 22.4155 17.6001 22.2168C17.5849 22.2061 17.5736 22.1909 17.5679 22.1732C17.5622 22.1556 17.5623 22.1366 17.5683 22.1191L17.6733 21.7676C17.6791 21.7495 17.6905 21.7339 17.7059 21.7229C17.7213 21.7119 17.7398 21.7061 17.7587 21.7065V21.709Z" fill="#D41D26"/>
</g>
<defs>
<clipPath id="clip0_11_1121">
<rect width="28.4229" height="30" fill="white"/>
</clipPath>
</defs>
</svg>
