<svg width="32" height="30" viewBox="0 0 32 30" fill="none" xmlns="http://www.w3.org/2000/svg">
<g clip-path="url(#clip0_11_1132)">
<path d="M16.4835 0.511991L20.5077 9.92235L30.7193 10.8363C30.879 10.8505 31.031 10.9112 31.1565 11.0109C31.2819 11.1107 31.3754 11.245 31.4253 11.3973C31.4751 11.5497 31.4792 11.7133 31.437 11.8679C31.3948 12.0225 31.3082 12.1614 31.1878 12.2673L23.4593 19.0076L25.7428 28.9914C25.7797 29.1507 25.7681 29.3174 25.7095 29.4701C25.6508 29.6228 25.5478 29.7544 25.4137 29.8481C25.2796 29.9417 25.1206 29.993 24.957 29.9955C24.7935 29.9979 24.633 29.9513 24.4961 29.8618L15.7283 24.6241L6.93489 29.8822C6.79714 29.9645 6.63827 30.0045 6.47799 29.9972C6.31772 29.99 6.1631 29.9358 6.03333 29.8415C5.90356 29.7472 5.80434 29.6168 5.74799 29.4666C5.69164 29.3164 5.68064 29.1529 5.71636 28.9965L7.99983 19.0127L0.279035 12.2673C0.157036 12.1603 0.0695452 12.0195 0.0276545 11.8628C-0.0142363 11.706 -0.00863978 11.5404 0.0437343 11.3868C0.0961085 11.2333 0.192901 11.0987 0.32184 11.0003C0.450779 10.9018 0.606056 10.8438 0.767984 10.8337L10.9412 9.92235L14.9731 0.511991C15.0356 0.363299 15.1406 0.236366 15.275 0.147106C15.4093 0.0578459 15.567 0.010231 15.7283 0.010231C15.8896 0.010231 16.0473 0.0578459 16.1816 0.147106C16.316 0.236366 16.421 0.363299 16.4835 0.511991Z" fill="#D41D26"/>
</g>
<defs>
<clipPath id="clip0_11_1132">
<rect width="31.4566" height="30" fill="white"/>
</clipPath>
</defs>
</svg>
