<svg width="30" height="30" viewBox="0 0 30 30" fill="none" xmlns="http://www.w3.org/2000/svg">
<g clip-path="url(#clip0_11_1127)">
<path d="M23.9526 5.0751e-07C24.9472 -0.000410208 25.9266 0.248472 26.804 0.724594C27.6814 1.20072 28.4296 1.88937 28.9824 2.72955C29.5352 3.56973 29.8755 4.53547 29.9732 5.54122C30.0708 6.54697 29.9228 7.56166 29.5422 8.49538C29.1616 9.4291 28.5602 10.253 27.7913 10.8941C27.0224 11.5353 26.1097 11.9738 25.1341 12.1708C24.1585 12.3679 23.1502 12.3174 22.1984 12.0238C21.2466 11.7302 20.3808 11.2027 19.6777 10.4878C19.6239 10.4333 19.5727 10.3787 19.5214 10.3216L11.9189 13.5464C12.0933 14.2725 12.1372 15.0246 12.0483 15.7665L19.7753 19.4253C20.8442 18.3943 22.2481 17.7974 23.7211 17.7478C25.1942 17.6982 26.6339 18.1993 27.7676 19.1562C28.9013 20.1131 29.6502 21.4593 29.8723 22.9396C30.0944 24.42 29.7744 25.9318 28.9728 27.1884C28.1712 28.445 26.9439 29.3593 25.5232 29.7579C24.1025 30.1565 22.5873 30.0118 21.2646 29.3512C19.942 28.6906 18.9037 27.56 18.3467 26.1736C17.7896 24.7873 17.7524 23.2414 18.2421 21.829L11.0693 18.4207C10.3764 19.474 9.38 20.284 8.21653 20.7397C7.05306 21.1953 5.77941 21.2745 4.56997 20.9662C3.36053 20.6579 2.27445 19.9773 1.46045 19.0176C0.646449 18.0579 0.14433 16.866 0.0228518 15.6051C-0.0986264 14.3442 0.166476 13.076 0.781855 11.9741C1.39724 10.8722 2.3328 9.99056 3.46045 9.44984C4.58809 8.90913 5.85267 8.7358 7.08102 8.95359C8.30937 9.17138 9.44144 9.76964 10.3222 10.6664C10.4296 10.7756 10.5346 10.8897 10.6322 11.0063L18.1371 7.8262C17.8811 6.91209 17.8373 5.95009 18.0091 5.01585C18.1809 4.08161 18.5636 3.2006 19.1272 2.4421C19.6909 1.6836 20.42 1.06828 21.2573 0.64453C22.0945 0.220781 23.0172 0.000155208 23.9526 5.0751e-07Z" fill="#D41D26"/>
</g>
<defs>
<clipPath id="clip0_11_1127">
<rect width="30" height="30" fill="white"/>
</clipPath>
</defs>
</svg>
