<svg width="25" height="25" viewBox="0 0 25 25" fill="none" xmlns="http://www.w3.org/2000/svg">
<path d="M22.2709 18.2096C22.3079 18.2096 22.3439 18.2134 22.3793 18.2204C22.6125 17.8139 22.8251 17.3872 23.0172 16.9415C23.0208 16.9325 23.0247 16.924 23.0292 16.9154C23.3177 16.2349 23.5353 15.5281 23.682 14.7957C23.7958 14.2274 23.866 13.6447 23.8926 13.0478H20.4557C20.3932 14.7922 19.8724 16.5126 18.9015 18.2096H22.2709ZM21.6717 19.3054H18.2102C17.1596 20.8274 15.7441 22.3307 13.9707 23.8153C14.2488 23.7807 14.5238 23.7364 14.7957 23.682C15.5374 23.5337 16.2532 23.3124 16.9419 23.018L16.9415 23.0172C17.6415 22.716 18.2936 22.3637 18.8964 21.9594C19.5005 21.5541 20.0604 21.0937 20.5749 20.577L20.5769 20.5749C20.9751 20.1784 21.3399 19.755 21.6717 19.3054ZM11.0291 23.8151C9.25585 22.3307 7.84044 20.8274 6.78961 19.3054H3.32868C3.66051 19.755 4.0251 20.1784 4.42305 20.5749L4.42508 20.5772V20.577C4.93982 21.0937 5.49972 21.5541 6.10357 21.9594C6.70619 22.3637 7.35825 22.716 8.05854 23.0172C8.06729 23.021 8.07603 23.0249 8.08458 23.0292C8.76513 23.3179 9.47192 23.5353 10.2046 23.682C10.4764 23.7364 10.751 23.7807 11.0291 23.8151ZM2.61477 18.2096H6.09828C5.12761 16.5126 4.60656 14.7922 4.54451 13.0478H1.1078C1.13425 13.6447 1.20444 14.2272 1.31817 14.7955C1.46648 15.5372 1.68804 16.253 1.98223 16.9417L1.98305 16.9415C2.17328 17.3834 2.38365 17.8063 2.61477 18.2096ZM1.1078 11.9522H4.56587C4.69303 10.2432 5.26005 8.52261 6.2763 6.79042H2.61477C2.38365 7.19366 2.17328 7.61664 1.98305 8.05874C1.97918 8.06749 1.97511 8.07624 1.97104 8.08458C1.68235 8.76533 1.46486 9.47212 1.31817 10.2046C1.20444 10.7728 1.13425 11.3555 1.1078 11.9522ZM3.32868 5.69483H6.97821C8.01744 4.19722 9.39156 2.69086 11.1063 1.17575C10.8019 1.21135 10.5014 1.25876 10.2048 1.31817C9.46276 1.46648 8.74722 1.68804 8.05854 1.98223L8.05874 1.98285C7.35846 2.28416 6.70639 2.63633 6.10377 3.0408C5.49992 3.44607 4.94002 3.90649 4.42529 4.42305L4.42305 4.42509C4.0251 4.82182 3.66051 5.245 3.32868 5.69483ZM13.8935 1.17555C15.6082 2.69066 16.9824 4.19702 18.0218 5.69463H21.6715C21.3397 5.245 20.9749 4.82161 20.5767 4.42509L20.5747 4.42305C20.0602 3.90628 19.5003 3.44607 18.8962 3.0408C18.2934 2.63633 17.6413 2.28416 16.9413 1.98285C16.9325 1.97918 16.9238 1.97511 16.9154 1.97084C16.2347 1.68235 15.5279 1.46465 14.7954 1.31817C14.4988 1.25876 14.1979 1.21135 13.8935 1.17555ZM22.3852 6.79042H18.7235C19.7399 8.52261 20.307 10.2432 20.4341 11.9522H23.8924C23.8658 11.3553 23.7954 10.7728 23.6818 10.2046C23.5333 9.46276 23.312 8.74702 23.0178 8.05833L23.017 8.05874C22.8267 7.61664 22.6166 7.19366 22.3852 6.79042ZM9.99072 0.243736C10.8029 0.0811774 11.6395 0 12.5001 0C13.3607 0 14.1971 0.0811774 15.0093 0.243736C15.8097 0.404056 16.5877 0.644536 17.3435 0.965381C17.3539 0.969043 17.3638 0.972908 17.3736 0.977181C18.127 1.30148 18.8378 1.68621 19.5039 2.1336C20.1688 2.57957 20.7839 3.08515 21.3484 3.65176C21.9151 4.21634 22.4206 4.83158 22.8664 5.49606C23.3134 6.16236 23.6985 6.87302 24.0228 7.62681L24.022 7.62702L24.0228 7.62885C24.3498 8.39342 24.5943 9.18078 24.7563 9.99072C24.9188 10.8029 24.9998 11.6395 24.9998 12.5001C24.9998 13.3607 24.9188 14.1975 24.7563 15.0097C24.5961 15.8097 24.3553 16.5881 24.0346 17.3437C24.031 17.3539 24.0271 17.3638 24.0226 17.3736C23.6983 18.1274 23.3134 18.8378 22.8662 19.5041C22.4204 20.1688 21.9149 20.7839 21.3482 21.3484C20.7837 21.9151 20.1684 22.4208 19.5037 22.8666C18.8378 23.3138 18.1268 23.6989 17.3734 24.023L17.373 24.0222L17.3709 24.023C16.6064 24.3498 15.8188 24.5943 15.0091 24.7563C14.1969 24.9188 13.3603 25 12.4999 25C11.6395 25 10.8027 24.9188 9.99052 24.7563C9.19034 24.5961 8.41214 24.3555 7.65611 24.0348C7.64614 24.031 7.63617 24.0273 7.6262 24.0228C6.87241 23.6987 6.16196 23.3138 5.49565 22.8664C4.83117 22.4206 4.21594 21.9149 3.65136 21.3482C3.08474 20.7837 2.57916 20.1684 2.1334 19.5039C1.68621 18.8378 1.30128 18.1272 0.976977 17.3734L0.977791 17.373L0.976977 17.3712C0.650233 16.6066 0.405684 15.8192 0.243736 15.0093C0.0813809 14.1973 0 13.3607 0 12.4999C0 11.6395 0.0813809 10.8027 0.243939 9.99052C0.404056 9.19034 0.64474 8.41214 0.965381 7.65631C0.969043 7.64634 0.972908 7.63617 0.977181 7.62641C1.30148 6.87261 1.68621 6.16196 2.1336 5.49565C2.57957 4.83118 3.08515 4.21594 3.65156 3.65136C4.21614 3.08474 4.83138 2.57916 5.49585 2.1332C6.16216 1.68601 6.87282 1.30108 7.6264 0.976774L7.62661 0.977588L7.62844 0.976774C8.39322 0.650437 9.18078 0.405887 9.99072 0.243736ZM13.048 1.88559V5.69483H16.6747C15.7218 4.43831 14.5143 3.16877 13.048 1.88559ZM13.048 6.79042V11.9522H19.3391C19.1969 10.257 18.5683 8.53665 17.4434 6.79042H13.048ZM13.048 13.0478V18.2096H17.6277C18.7117 16.5014 19.2938 14.7806 19.3634 13.0478H13.048ZM13.048 19.3054V23.1612C14.6034 21.8829 15.8764 20.5975 16.8619 19.3054H13.048ZM11.9522 23.1616V19.3054H8.13809C9.12341 20.5975 10.3964 21.8831 11.9522 23.1616ZM11.9522 18.2096V13.0478H5.63685C5.70622 14.7808 6.2881 16.5014 7.3725 18.2096H11.9522ZM11.9522 11.9522V6.79042H7.55682C6.43194 8.53665 5.80327 10.2572 5.66085 11.9522H11.9522ZM11.9522 5.69483V1.88519C10.4859 3.16836 9.27823 4.43831 8.32526 5.69483H11.9522Z" fill="#D41D26"/>
</svg>
