<svg width="238" height="289" viewBox="0 0 238 289" fill="none" xmlns="http://www.w3.org/2000/svg">
<path d="M80 170.2C56.05 170.2 55 135 55 135V105H105V135C105 135 103.95 170.2 80 170.2Z" fill="white"/>
<path d="M135 75C135 80.52 130.52 85 125 85C119.48 85 115 80.52 115 75C115 69.48 119.48 65 125 65C130.52 65 135 69.48 135 75ZM45 75C45 80.52 40.52 85 35 85C29.48 85 25 80.52 25 75C25 69.48 29.48 65 35 65C40.52 65 45 69.48 45 75Z" fill="white"/>
<path d="M125 80.0004C125 104.85 104.85 125 80 125C55.15 125 35 104.85 35 80.0004V45.0004C35 20.1504 125 6.82038 125 45.0004V80.0004Z" fill="white"/>
<path d="M95 0L100 10C124.8 14.93 130 34.88 130 55V66.3L120 75V50L100 30L40 50V75L30 66.42V55C30 24.62 49.62 0 80 0H95Z" fill="white"/>
<path d="M100 70C102.75 70 105 72.24 105 75C105 77.76 102.75 80 100 80C97.24 80 95 77.76 95 75C95 72.24 97.24 70 100 70ZM60 70C62.75 70 65 72.24 65 75C65 77.76 62.75 80 60 80C57.24 80 55 77.76 55 75C55 72.24 57.24 70 60 70Z" fill="white"/>
<path d="M160 200H0C0 144.93 55 135 55 135C55 135 63.76 145 80 145C96.23 145 105 135 105 135C105 135 160 145.13 160 200Z" fill="white"/>
<path fill-rule="evenodd" clip-rule="evenodd" d="M168.5 289C206.885 289 238 257.885 238 219.5C238 181.115 206.885 150 168.5 150C130.115 150 99 181.115 99 219.5C99 257.885 130.115 289 168.5 289ZM160.202 256.335L214.502 201.937L199.719 187.182L160.174 226.798L141.214 207.893L126.459 222.683L160.202 256.335Z" fill="white"/>
</svg>
