<svg width="20" height="20" viewBox="0 0 20 20" fill="none" xmlns="http://www.w3.org/2000/svg">
<g clip-path="url(#clip0_2_819)">
<path fill-rule="evenodd" clip-rule="evenodd" d="M6.61067 10.2327C12.6086 10.6971 12.2966 7.28473 19.2135 5.65314C14.3047 1.43633 10.4784 4.30351 6.61067 0.929433V0.820479C6.61067 0.367478 6.24319 0 5.79019 0C5.33719 0 4.96971 0.367478 4.96971 0.820479V15.5934C4.96971 16.0464 5.33719 16.4139 5.79019 16.4139C6.24319 16.4139 6.61067 16.0464 6.61067 15.5934V10.2327ZM8.21492 12.5903C9.08772 12.7004 9.9578 13.1238 10.5908 13.7619C11.2071 14.3836 11.6097 15.2068 11.6097 16.1553C11.6097 16.7704 11.3848 17.3687 10.9728 17.9049C10.6049 18.3833 10.0812 18.8148 9.43607 19.158C8.93737 19.4232 8.35863 19.6396 7.71739 19.786C7.11756 19.9231 6.47008 20 5.79019 20C5.15638 20 4.55068 19.9332 3.98638 19.8137C3.38186 19.6856 2.83279 19.497 2.35285 19.265C1.32774 18.7687 0.668932 18.1036 0.316684 17.3847C0.0109087 16.7603 -0.0648518 16.1022 0.0523036 15.4727C0.164773 14.8655 0.457662 14.2973 0.89387 13.8267C1.47145 13.2042 2.31067 12.7457 3.31508 12.604L3.47402 14.0606C2.76562 14.161 2.18727 14.4699 1.80104 14.8862C1.55463 15.1521 1.39139 15.4583 1.3332 15.7722C1.27931 16.064 1.31719 16.3748 1.46481 16.6763C1.68311 17.1223 2.13455 17.5557 2.87028 17.9119C3.27095 18.1056 3.72747 18.2626 4.22733 18.3688C4.70338 18.4696 5.22745 18.5258 5.79019 18.5258C6.39432 18.5258 6.95354 18.4614 7.45614 18.3462C7.98841 18.2247 8.46719 18.0462 8.87762 17.8279C9.35718 17.5729 9.73364 17.2683 9.98357 16.943C10.1866 16.6786 10.2975 16.4084 10.2975 16.1553C10.2975 15.6578 10.0691 15.2087 9.71958 14.8561C9.28767 14.4207 8.68393 14.1305 8.0716 14.0532L8.21492 12.5903Z" fill="#D41D26"/>
</g>
<defs>
<clipPath id="clip0_2_819">
<rect width="19.2135" height="20" fill="white"/>
</clipPath>
</defs>
</svg>
