<svg width="20" height="20" viewBox="0 0 20 20" fill="none" xmlns="http://www.w3.org/2000/svg">
<g clip-path="url(#clip0_2_793)">
<mask id="path-1-inside-1_2_793" fill="white">
<path d="M8.47493 11.201C8.94911 11.7093 9.46707 12.1744 10.0228 12.591C10.6238 13.0398 11.2607 13.438 11.9271 13.7814L11.9548 13.7618C12.0036 13.7225 12.0589 13.6718 12.1175 13.6146C12.1761 13.5574 12.2152 13.5083 12.2673 13.4511L12.4512 13.2107C12.4674 13.1856 12.4859 13.162 12.5065 13.1404C13.208 12.2116 14.082 11.0948 15.4883 11.7488C15.5175 11.761 15.5457 11.7752 15.5729 11.7913C16.7122 12.4683 17.8809 13.124 19.0299 13.7879C19.0585 13.8029 19.0858 13.8204 19.1113 13.8402C19.3959 14.0344 19.6245 14.3007 19.7738 14.6121C19.9214 14.9328 19.997 15.2823 19.9951 15.6357C19.9917 15.9738 19.9401 16.3097 19.8421 16.6331C19.7389 16.9785 19.597 17.311 19.4189 17.6241C19.1993 18.0143 18.9134 18.363 18.5742 18.6542C18.254 18.9286 17.8961 19.1549 17.5114 19.3263H17.5033C17.1538 19.4848 16.7911 19.6117 16.4193 19.7057C16.0583 19.7982 15.6926 19.8713 15.3239 19.9248C14.7599 20.0096 14.1879 20.0271 13.6198 19.9771C13.0581 19.9268 12.5033 19.8172 11.9645 19.6501C11.4119 19.4741 10.8738 19.2555 10.3548 18.996C9.78837 18.7152 9.23645 18.4057 8.70117 18.0688L8.56445 17.9838C8.06478 17.6715 7.52604 17.3297 6.98079 16.9258C5.85627 16.0692 4.82026 15.1012 3.88834 14.0365C2.98453 13.0101 2.1933 11.889 1.52832 10.6925C0.936419 9.6379 0.497938 8.50355 0.226236 7.32401C-0.0180281 6.27517 -0.0622105 5.18932 0.0960273 4.12395C0.192096 3.49266 0.391166 2.88161 0.68522 2.31543C0.959743 1.78785 1.33857 1.32213 1.7985 0.946773C2.25421 0.579743 2.78153 0.312904 3.34635 0.163517C3.94342 0.0103192 4.56257 -0.0367207 5.17578 0.0245262C5.33918 0.0350761 5.49718 0.0874248 5.63476 0.176599C5.76988 0.264338 5.88162 0.3839 5.96028 0.524894L8.15104 4.25149C8.34402 4.50157 8.47009 4.7971 8.51725 5.10997C8.55622 5.42118 8.51008 5.73718 8.38379 6.02404C8.27946 6.26148 8.13644 6.47978 7.96061 6.66994C7.78668 6.85839 7.59479 7.02926 7.38769 7.18012C7.26888 7.28313 7.11914 7.39269 6.96289 7.50715L6.94824 7.5186C6.76279 7.64648 6.58706 7.78804 6.42252 7.94211C6.35825 7.9943 6.30791 8.06173 6.27604 8.13834C6.27604 8.15632 6.29069 8.13834 6.30696 8.16613L6.3623 8.2528C6.54622 8.54223 6.90104 9.09492 7.30631 9.68196C7.66295 10.2141 8.0533 10.7226 8.47493 11.2043V11.201ZM9.36198 13.474C8.75653 13.0196 8.19128 12.5135 7.67252 11.9614C7.21166 11.4404 6.78643 10.8886 6.39974 10.3099C5.99609 9.72447 5.625 9.14725 5.43294 8.8382L5.38574 8.76788C5.30411 8.66708 5.24323 8.551 5.20663 8.42636C5.17003 8.30173 5.15844 8.17103 5.17252 8.04186C5.21568 7.69684 5.38159 7.37915 5.63965 7.14741C5.84514 6.95166 6.06554 6.77234 6.29883 6.61107C6.42903 6.51623 6.55273 6.42466 6.66504 6.32818L6.69922 6.30202C6.85721 6.19099 7.0029 6.06326 7.13379 5.92102C7.22762 5.82022 7.30458 5.7048 7.36165 5.57926C7.40862 5.47712 7.42718 5.36411 7.41536 5.25223C7.39106 5.12523 7.33506 5.00651 7.2526 4.9072C7.2325 4.88416 7.21503 4.85893 7.20052 4.83198L5.03255 1.12174C4.56244 1.07879 4.08848 1.11695 3.63118 1.23457C3.21503 1.3438 2.82669 1.54054 2.49186 1.81179C2.1487 2.09311 1.86578 2.44131 1.66015 2.83542C1.42421 3.29345 1.26475 3.78731 1.18815 4.29728C1.05099 5.22279 1.08964 6.16604 1.30208 7.0771C1.55378 8.15385 1.95716 9.18901 2.5 10.1513C3.12489 11.2748 3.86926 12.3269 4.72005 13.2892C5.60305 14.2973 6.58453 15.2137 7.64974 16.0249C8.13802 16.396 8.66862 16.7247 9.1569 17.0289L9.29525 17.1172C9.79634 17.433 10.3129 17.7234 10.8431 17.9871C11.3103 18.221 11.7952 18.4173 12.2933 18.5741C12.7576 18.7206 13.2361 18.817 13.7207 18.8619C14.2037 18.9036 14.6898 18.8882 15.1693 18.8161C15.498 18.7697 15.824 18.7053 16.1458 18.6232C16.4545 18.5456 16.7558 18.4406 17.0459 18.3092H17.0605C17.3499 18.1804 17.6196 18.0108 17.8613 17.8056C18.1029 17.5978 18.3067 17.3493 18.4635 17.0714C18.5999 16.832 18.7091 16.5781 18.7891 16.3143C18.8563 16.092 18.8924 15.8614 18.8965 15.6291C18.9006 15.4409 18.8622 15.2542 18.7842 15.083C18.7184 14.9441 18.6166 14.8255 18.4896 14.7396C17.609 14.1068 16.0628 13.335 15.0716 12.7594L15.0244 12.7349L15.0439 12.7447L15.0244 12.7349C14.4141 12.4618 13.8477 13.1845 13.387 13.7945L13.3594 13.8337C13.2796 13.94 13.1966 14.043 13.1315 14.1313C13.0664 14.2196 12.9687 14.3275 12.9036 14.3929C12.816 14.4809 12.723 14.5633 12.6253 14.6398C12.5151 14.7235 12.3941 14.7917 12.2656 14.8426C12.144 14.8907 12.0136 14.9119 11.8831 14.9048C11.7708 14.8971 11.6607 14.87 11.5576 14.8246L11.5055 14.8017C10.755 14.4208 10.0379 13.9766 9.36198 13.474Z"/>
</mask>
<path d="M8.47493 11.201C8.94911 11.7093 9.46707 12.1744 10.0228 12.591C10.6238 13.0398 11.2607 13.438 11.9271 13.7814L11.9548 13.7618C12.0036 13.7225 12.0589 13.6718 12.1175 13.6146C12.1761 13.5574 12.2152 13.5083 12.2673 13.4511L12.4512 13.2107C12.4674 13.1856 12.4859 13.162 12.5065 13.1404C13.208 12.2116 14.082 11.0948 15.4883 11.7488C15.5175 11.761 15.5457 11.7752 15.5729 11.7913C16.7122 12.4683 17.8809 13.124 19.0299 13.7879C19.0585 13.8029 19.0858 13.8204 19.1113 13.8402C19.3959 14.0344 19.6245 14.3007 19.7738 14.6121C19.9214 14.9328 19.997 15.2823 19.9951 15.6357C19.9917 15.9738 19.9401 16.3097 19.8421 16.6331C19.7389 16.9785 19.597 17.311 19.4189 17.6241C19.1993 18.0143 18.9134 18.363 18.5742 18.6542C18.254 18.9286 17.8961 19.1549 17.5114 19.3263H17.5033C17.1538 19.4848 16.7911 19.6117 16.4193 19.7057C16.0583 19.7982 15.6926 19.8713 15.3239 19.9248C14.7599 20.0096 14.1879 20.0271 13.6198 19.9771C13.0581 19.9268 12.5033 19.8172 11.9645 19.6501C11.4119 19.4741 10.8738 19.2555 10.3548 18.996C9.78837 18.7152 9.23645 18.4057 8.70117 18.0688L8.56445 17.9838C8.06478 17.6715 7.52604 17.3297 6.98079 16.9258C5.85627 16.0692 4.82026 15.1012 3.88834 14.0365C2.98453 13.0101 2.1933 11.889 1.52832 10.6925C0.936419 9.6379 0.497938 8.50355 0.226236 7.32401C-0.0180281 6.27517 -0.0622105 5.18932 0.0960273 4.12395C0.192096 3.49266 0.391166 2.88161 0.68522 2.31543C0.959743 1.78785 1.33857 1.32213 1.7985 0.946773C2.25421 0.579743 2.78153 0.312904 3.34635 0.163517C3.94342 0.0103192 4.56257 -0.0367207 5.17578 0.0245262C5.33918 0.0350761 5.49718 0.0874248 5.63476 0.176599C5.76988 0.264338 5.88162 0.3839 5.96028 0.524894L8.15104 4.25149C8.34402 4.50157 8.47009 4.7971 8.51725 5.10997C8.55622 5.42118 8.51008 5.73718 8.38379 6.02404C8.27946 6.26148 8.13644 6.47978 7.96061 6.66994C7.78668 6.85839 7.59479 7.02926 7.38769 7.18012C7.26888 7.28313 7.11914 7.39269 6.96289 7.50715L6.94824 7.5186C6.76279 7.64648 6.58706 7.78804 6.42252 7.94211C6.35825 7.9943 6.30791 8.06173 6.27604 8.13834C6.27604 8.15632 6.29069 8.13834 6.30696 8.16613L6.3623 8.2528C6.54622 8.54223 6.90104 9.09492 7.30631 9.68196C7.66295 10.2141 8.0533 10.7226 8.47493 11.2043V11.201ZM9.36198 13.474C8.75653 13.0196 8.19128 12.5135 7.67252 11.9614C7.21166 11.4404 6.78643 10.8886 6.39974 10.3099C5.99609 9.72447 5.625 9.14725 5.43294 8.8382L5.38574 8.76788C5.30411 8.66708 5.24323 8.551 5.20663 8.42636C5.17003 8.30173 5.15844 8.17103 5.17252 8.04186C5.21568 7.69684 5.38159 7.37915 5.63965 7.14741C5.84514 6.95166 6.06554 6.77234 6.29883 6.61107C6.42903 6.51623 6.55273 6.42466 6.66504 6.32818L6.69922 6.30202C6.85721 6.19099 7.0029 6.06326 7.13379 5.92102C7.22762 5.82022 7.30458 5.7048 7.36165 5.57926C7.40862 5.47712 7.42718 5.36411 7.41536 5.25223C7.39106 5.12523 7.33506 5.00651 7.2526 4.9072C7.2325 4.88416 7.21503 4.85893 7.20052 4.83198L5.03255 1.12174C4.56244 1.07879 4.08848 1.11695 3.63118 1.23457C3.21503 1.3438 2.82669 1.54054 2.49186 1.81179C2.1487 2.09311 1.86578 2.44131 1.66015 2.83542C1.42421 3.29345 1.26475 3.78731 1.18815 4.29728C1.05099 5.22279 1.08964 6.16604 1.30208 7.0771C1.55378 8.15385 1.95716 9.18901 2.5 10.1513C3.12489 11.2748 3.86926 12.3269 4.72005 13.2892C5.60305 14.2973 6.58453 15.2137 7.64974 16.0249C8.13802 16.396 8.66862 16.7247 9.1569 17.0289L9.29525 17.1172C9.79634 17.433 10.3129 17.7234 10.8431 17.9871C11.3103 18.221 11.7952 18.4173 12.2933 18.5741C12.7576 18.7206 13.2361 18.817 13.7207 18.8619C14.2037 18.9036 14.6898 18.8882 15.1693 18.8161C15.498 18.7697 15.824 18.7053 16.1458 18.6232C16.4545 18.5456 16.7558 18.4406 17.0459 18.3092H17.0605C17.3499 18.1804 17.6196 18.0108 17.8613 17.8056C18.1029 17.5978 18.3067 17.3493 18.4635 17.0714C18.5999 16.832 18.7091 16.5781 18.7891 16.3143C18.8563 16.092 18.8924 15.8614 18.8965 15.6291C18.9006 15.4409 18.8622 15.2542 18.7842 15.083C18.7184 14.9441 18.6166 14.8255 18.4896 14.7396C17.609 14.1068 16.0628 13.335 15.0716 12.7594L15.0244 12.7349L15.0439 12.7447L15.0244 12.7349C14.4141 12.4618 13.8477 13.1845 13.387 13.7945L13.3594 13.8337C13.2796 13.94 13.1966 14.043 13.1315 14.1313C13.0664 14.2196 12.9687 14.3275 12.9036 14.3929C12.816 14.4809 12.723 14.5633 12.6253 14.6398C12.5151 14.7235 12.3941 14.7917 12.2656 14.8426C12.144 14.8907 12.0136 14.9119 11.8831 14.9048C11.7708 14.8971 11.6607 14.87 11.5576 14.8246L11.5055 14.8017C10.755 14.4208 10.0379 13.9766 9.36198 13.474Z" fill="#D41D26" stroke="#D41D26" stroke-width="2" mask="url(#path-1-inside-1_2_793)"/>
</g>
<defs>
<clipPath id="clip0_2_793">
<rect width="20" height="20" fill="white"/>
</clipPath>
</defs>
</svg>
